<svg xmlns:xlink="http://www.w3.org/1999/xlink" xmlns="http://www.w3.org/2000/svg" width="152.875" height="34.503" viewBox="0 0 152.875 34.503"><g transform="translate(0 0)"><path d="M322.8,331.258a1.358,1.358,0,1,0,1.358-1.358,1.364,1.364,0,0,0-1.358,1.358" transform="translate(-309.396 -316.201)" class="a" fill="#FCC117"></path><path d="M586.458,328.8a1.358,1.358,0,1,0,1.358,1.358,1.364,1.364,0,0,0-1.358-1.358" transform="translate(-560.804 -315.147)" class="a" fill="#FCC117"></path><path d="M586.458,587.8a1.358,1.358,0,1,0,1.358,1.358,1.364,1.364,0,0,0-1.358-1.358" transform="translate(-560.804 -563.392)" class="a" fill="#FCC117"></path><path d="M28.639,1.454a3.846,3.846,0,0,0-5.656-.407,2.094,2.094,0,0,1-.174.154l-.353.278a3.7,3.7,0,0,1-4.962-.307l-.046-.046a3.836,3.836,0,0,0-1.7-.992h0C15.621.1,15.5.071,15.372.054L15.264.042a2.037,2.037,0,0,0-.278-.029c-.054,0-.108,0-.162,0-.071,0-.149,0-.22,0s-.133.008-.2.012l-.183.012c-.079.008-.149.029-.22.042-.054.008-.1.017-.158.029-.079.017-.158.046-.233.066a.861.861,0,0,0-.137.042c-.079.029-.162.062-.241.1-.042.017-.079.029-.125.05-.079.037-.162.079-.241.125-.037.017-.071.037-.108.058-.079.05-.158.1-.233.154-.029.021-.066.042-.1.066-.079.058-.149.125-.22.183-.029.029-.058.05-.091.079a.192.192,0,0,0-.029.029,2.094,2.094,0,0,1-.174.154l-.353.278A3.7,3.7,0,0,1,6.631,1.2l-.066-.066-.008-.008,0,0A2.179,2.179,0,0,0,6.378.955a3.822,3.822,0,0,0-1.889-.9c-.012,0-.021,0-.037,0C4.343.038,4.24.025,4.132.013c-.042,0-.087,0-.125,0-.079,0-.154,0-.233,0-.05,0-.1,0-.145,0-.071,0-.149.008-.22.017-.046,0-.1.012-.141.017-.079.012-.158.029-.233.042a.732.732,0,0,0-.112.029c-.1.021-.183.05-.278.079C2.624.2,2.6.2,2.579.212A3.728,3.728,0,0,0,1.3.955a.742.742,0,0,1-.058.054l0,0A2.585,2.585,0,0,0,.959,1.3l0,0a.252.252,0,0,0-.029.042A3.885,3.885,0,0,0,.249,2.5s0,0,0,.008a2.783,2.783,0,0,0-.1.316s0,.008,0,.012a2.878,2.878,0,0,0-.071.328v.008A3.931,3.931,0,0,0,.183,5a2.187,2.187,0,0,0,.079.233.461.461,0,0,0,.029.066,2.671,2.671,0,0,0,.133.295.1.1,0,0,0,.017.029,3.513,3.513,0,0,0,.183.32l0,0A3.912,3.912,0,0,0,.963,6.4c.054.058.108.112.162.166l0,0,.008.008c.046.046.091.1.141.141a3.62,3.62,0,0,1-.029,5.191,3.838,3.838,0,0,0-.577.673c0,.008-.008.012-.012.021a3.657,3.657,0,0,0-.2.32c-.008.017-.017.029-.029.05-.054.1-.1.208-.145.311a.507.507,0,0,1-.029.071c-.037.1-.071.2-.1.3-.008.029-.017.066-.029.1-.021.087-.046.183-.062.278-.008.042-.017.087-.021.125-.012.087-.021.166-.029.253,0,.05-.008.1-.012.154,0,.071,0,.149,0,.22s0,.125,0,.183.008.125.017.183a2,2,0,0,0,.029.22c.008.046.017.087.029.133.017.087.037.174.058.27,0,.017.008.029.012.05a3.8,3.8,0,0,0,1.088,1.773,3.615,3.615,0,0,1-.029,5.24.271.271,0,0,0-.046.05c-.071.071-.149.145-.216.22a.4.4,0,0,0-.029.037c-.012.012-.021.029-.037.046a3.276,3.276,0,0,0-.2.27c-.021.029-.042.062-.062.1-.05.079-.1.154-.141.233-.021.046-.046.087-.066.133-.029.062-.062.133-.091.2s-.05.112-.071.166-.029.1-.046.141A3.909,3.909,0,0,0,0,25.637v.037c0,.1,0,.2.012.307,0,.017,0,.029,0,.05a2.463,2.463,0,0,0,.042.3.178.178,0,0,1,.008.05,3.528,3.528,0,0,0,.233.764c.029.071.058.141.091.212.017.042.042.079.062.125a2.623,2.623,0,0,0,.137.233c.021.029.046.066.066.1.054.079.112.158.174.233.021.029.046.058.066.087a.388.388,0,0,1,.058.079c.042.046.087.091.133.133s.071.079.108.112c.066.062.141.125.212.183a.831.831,0,0,0,.091.079.129.129,0,0,1,.037.029l.091.066c.079.054.149.1.233.154a.508.508,0,0,1,.079.05q.131.075.262.137l.066.029a2.981,2.981,0,0,0,.336.133s0,0,.008,0a2.756,2.756,0,0,0,.361.1.243.243,0,0,0,.054.008c.1.021.2.042.291.054l.116.012c.079.008.158.012.241.017.042,0,.087,0,.125,0,.079,0,.162,0,.241,0,.037,0,.071,0,.112,0a3.391,3.391,0,0,0,.71-.125c.021,0,.042-.012.062-.017.1-.029.2-.058.291-.1.021-.008.046-.017.071-.029.1-.042.2-.079.287-.125.017-.008.029-.017.05-.029a3.438,3.438,0,0,0,.627-.407c.008,0,.012-.012.017-.017a.338.338,0,0,1,.042-.037c.1-.079.183-.158.27-.241l.1-.1a3.6,3.6,0,0,1,5.253.008,3.854,3.854,0,1,0,.179-5.435,2.094,2.094,0,0,1-.174.154l-.353.278a3.688,3.688,0,0,1-4.933-.287c-.05-.05-.1-.1-.141-.158L6.224,22.5A3.707,3.707,0,0,1,6.5,17.561a3.851,3.851,0,0,0,1.2-2.736c0-.062,0-.125,0-.191,0-.021,0-.046,0-.066a3.821,3.821,0,0,0-1.067-2.479,1.358,1.358,0,0,1-.125-.145l-.278-.353a3.708,3.708,0,0,1,.3-4.962.543.543,0,0,0,.05-.046l.1-.1a3.6,3.6,0,0,1,5.253.008c.042.046.087.079.125.125s.087.087.133.125a2.194,2.194,0,0,0,.183.149c.05.037.1.079.145.112s.125.087.183.125.1.066.158.1.125.066.191.1.112.054.174.079.125.054.2.079.125.046.183.062a1.865,1.865,0,0,0,.2.054c.062.017.133.029.2.046s.125.021.191.037.137.017.208.021.125.012.183.012a1.873,1.873,0,0,0,.216,0c.058,0,.116,0,.174,0,.079,0,.154-.012.233-.021.054,0,.108-.008.162-.017.079-.012.162-.029.241-.05.046-.008.1-.017.141-.029a2.044,2.044,0,0,0,.27-.087,1.109,1.109,0,0,0,.108-.037,2.547,2.547,0,0,0,.328-.145l.042-.017a3.924,3.924,0,0,0,.992-.718l.1-.1a3.6,3.6,0,0,1,5.253.008,3.849,3.849,0,0,0,5.863-.27,3.919,3.919,0,0,0-.054-4.763" transform="translate(0 0.004)" class="a" fill="#FCC117"></path><path d="M925.733,205.677a5.721,5.721,0,0,0-1.6-1.2,4.977,4.977,0,0,0-3.961,0,4.034,4.034,0,0,0-1.4,1.125,5.207,5.207,0,0,0-.855,1.644,6.383,6.383,0,0,0-.291,1.935,5.378,5.378,0,0,0,.336,1.9,4.827,4.827,0,0,0,.943,1.57,4.333,4.333,0,0,0,1.466,1.051,4.653,4.653,0,0,0,1.918.378,4.358,4.358,0,0,0,1.977-.411,5.067,5.067,0,0,0,1.524-1.2l1.952,1.947a6.2,6.2,0,0,1-2.487,1.707,8.685,8.685,0,0,1-3,.519,8.28,8.28,0,0,1-3.065-.548,7.029,7.029,0,0,1-2.392-1.536,6.779,6.779,0,0,1-1.553-2.379,8.235,8.235,0,0,1-.548-3.056,8.393,8.393,0,0,1,.548-3.077,6.887,6.887,0,0,1,3.916-3.974,8.193,8.193,0,0,1,3.094-.565,8.321,8.321,0,0,1,3.031.565,6.6,6.6,0,0,1,2.512,1.723Z" transform="translate(-876.718 -193.133)" class="b" fill="#FFFFFF"></path><path d="M1260.427,208.016a6,6,0,0,0,.336,2.035,4.559,4.559,0,0,0,.943,1.59,4.386,4.386,0,0,0,1.495,1.038,4.978,4.978,0,0,0,1.985.386,4.8,4.8,0,0,0,1.976-.386,4.37,4.37,0,0,0,1.495-1.038,4.5,4.5,0,0,0,.943-1.59,6.058,6.058,0,0,0,.336-2.035,5.993,5.993,0,0,0-.336-2.035,4.62,4.62,0,0,0-.943-1.59,4.386,4.386,0,0,0-1.495-1.038,4.964,4.964,0,0,0-1.976-.386,4.865,4.865,0,0,0-1.985.386,4.428,4.428,0,0,0-1.495,1.038,4.5,4.5,0,0,0-.943,1.59,5.88,5.88,0,0,0-.336,2.035m-2.927,0a7.347,7.347,0,0,1,.6-2.965A7.772,7.772,0,0,1,1268.2,201a7.555,7.555,0,0,1,2.437,1.636,7.782,7.782,0,0,1,1.632,2.417,7.345,7.345,0,0,1,.6,2.965,7.57,7.57,0,0,1-2.23,5.4,7.729,7.729,0,0,1-5.456,2.217,7.728,7.728,0,0,1-5.456-2.217,7.571,7.571,0,0,1-2.23-5.4" transform="translate(-1205.284 -192.078)" class="b" fill="#FFFFFF"></path><path d="M1674.839,56.88h2.745V42.4h-2.745Zm-.639-19.666a2.028,2.028,0,1,1,.59,1.416A1.942,1.942,0,0,1,1674.2,37.214Z" transform="translate(-1604.68 -33.738)" class="b" fill="#FFFFFF"></path><path d="M1848.2,200.67h2.736V202.9H1851a4.062,4.062,0,0,1,1.794-1.877,5.917,5.917,0,0,1,2.957-.718,6.262,6.262,0,0,1,1.993.32,4.424,4.424,0,0,1,1.677.992,4.7,4.7,0,0,1,1.142,1.723,6.571,6.571,0,0,1,.423,2.487v9.3h-2.736v-8.537a4.731,4.731,0,0,0-.278-1.723,3.079,3.079,0,0,0-.731-1.159,2.81,2.81,0,0,0-1.051-.644,3.855,3.855,0,0,0-1.233-.2,4.283,4.283,0,0,0-1.582.278,3.294,3.294,0,0,0-1.279.868,4.071,4.071,0,0,0-.855,1.511,6.888,6.888,0,0,0-.3,2.163v7.441H1848.2l0-14.45Z" transform="translate(-1771.455 -191.983)" class="b" fill="#FFFFFF"></path><path d="M2217.349,23.382a4.964,4.964,0,0,0,1.977-.378,4.315,4.315,0,0,0,1.491-1.038,4.5,4.5,0,0,0,.938-1.586,6.016,6.016,0,0,0,.336-2.031,5.927,5.927,0,0,0-.336-2.031,4.733,4.733,0,0,0-.938-1.586,4.471,4.471,0,0,0-1.491-1.038,5.358,5.358,0,0,0-3.953,0,4.316,4.316,0,0,0-1.491,1.038,4.507,4.507,0,0,0-.938,1.586,6.04,6.04,0,0,0-.336,2.031,5.938,5.938,0,0,0,.336,2.031,4.6,4.6,0,0,0,.938,1.586A4.47,4.47,0,0,0,2215.373,23,4.963,4.963,0,0,0,2217.349,23.382Zm7.478,2.2h-2.736V23.5h-.058a5.253,5.253,0,0,1-2.172,1.8,6.68,6.68,0,0,1-2.84.644,7.664,7.664,0,0,1-3.023-.577,6.63,6.63,0,0,1-2.309-1.619,7.367,7.367,0,0,1-1.474-2.413,8.418,8.418,0,0,1-.515-2.99,8.644,8.644,0,0,1,.515-3.006,7.158,7.158,0,0,1,1.474-2.413,6.706,6.706,0,0,1,2.309-1.6,7.62,7.62,0,0,1,3.023-.577,6.69,6.69,0,0,1,2.919.656,5,5,0,0,1,2.1,1.786h.058V2.5h2.736V25.579Z" transform="translate(-2117.945 -2.396)" class="b" fill="#FFFFFF"></path><path d="M2646.615,206.628a5.787,5.787,0,0,0-.291-1.682,3.69,3.69,0,0,0-.776-1.329,3.629,3.629,0,0,0-1.3-.884,4.783,4.783,0,0,0-1.814-.32,4.309,4.309,0,0,0-1.848.386,4.543,4.543,0,0,0-1.424.992,4.713,4.713,0,0,0-.905,1.358,3.788,3.788,0,0,0-.32,1.482h8.678Zm-8.683,2.2a3.694,3.694,0,0,0,.411,1.727,4.323,4.323,0,0,0,1.084,1.329,5.022,5.022,0,0,0,1.561.855,5.6,5.6,0,0,0,1.831.307,4.111,4.111,0,0,0,2.234-.6,7.038,7.038,0,0,0,1.744-1.578l2.08,1.59a7.653,7.653,0,0,1-6.419,2.965,7.988,7.988,0,0,1-3.1-.581,6.75,6.75,0,0,1-2.354-1.6,7.138,7.138,0,0,1-1.483-2.417,8.471,8.471,0,0,1-.519-3.015,8.032,8.032,0,0,1,.565-3.015,7.429,7.429,0,0,1,1.561-2.417,7.022,7.022,0,0,1,2.367-1.6,7.657,7.657,0,0,1,3-.581,7.133,7.133,0,0,1,3.251.673,6.5,6.5,0,0,1,2.188,1.756,6.949,6.949,0,0,1,1.237,2.446,10.25,10.25,0,0,1,.386,2.766v.98h-11.611v.021h-.012Z" transform="translate(-2525.584 -191.887)" class="b" fill="#FFFFFF"></path><path d="M3032.3,204.124a4.246,4.246,0,0,0-1.2-1.026,3.441,3.441,0,0,0-1.752-.411,3.32,3.32,0,0,0-1.69.411,1.312,1.312,0,0,0-.719,1.2,1.379,1.379,0,0,0,.411,1.038,3.171,3.171,0,0,0,.976.644,5.563,5.563,0,0,0,1.2.365c.423.079.789.154,1.1.212a13.383,13.383,0,0,1,1.661.519,4.5,4.5,0,0,1,1.341.8,3.516,3.516,0,0,1,.885,1.192,4.143,4.143,0,0,1,.32,1.715,4.047,4.047,0,0,1-.519,2.1,4.448,4.448,0,0,1-1.341,1.424,5.647,5.647,0,0,1-1.877.8,9.389,9.389,0,0,1-2.118.241,8.28,8.28,0,0,1-3.152-.552,5.617,5.617,0,0,1-2.421-2.018l2.072-1.715a8.369,8.369,0,0,0,1.495,1.192,3.674,3.674,0,0,0,2.01.519,5.407,5.407,0,0,0,1.051-.108,3.158,3.158,0,0,0,.942-.336,2.033,2.033,0,0,0,.669-.581,1.318,1.318,0,0,0,.258-.81,1.4,1.4,0,0,0-.378-1.009,2.712,2.712,0,0,0-.914-.627,6.182,6.182,0,0,0-1.129-.365c-.394-.091-.743-.166-1.05-.233-.59-.145-1.146-.307-1.678-.49a5.141,5.141,0,0,1-1.4-.731,3.4,3.4,0,0,1-.976-1.163,3.789,3.789,0,0,1-.365-1.744,4,4,0,0,1,.473-1.977,4.157,4.157,0,0,1,1.254-1.391,5.694,5.694,0,0,1,1.765-.826,7.451,7.451,0,0,1,2-.278,7.288,7.288,0,0,1,2.807.552,4.43,4.43,0,0,1,2.13,1.831Z" transform="translate(-2897.856 -191.791)" class="b" fill="#FFFFFF"></path><path d="M3359.6,2.4h2.745V17.274l6.228-6.249h3.82l-6.751,6.557,7.329,7.86h-3.907l-6.718-7.5v7.5H3359.6Z" transform="translate(-3220.096 -2.3)" class="b" fill="#FFFFFF"></path></g><path d="M2804.158,639.28a2.724,2.724,0,0,1-.153.914,2.25,2.25,0,0,1-.453.772,2.279,2.279,0,0,1-.752.531,2.909,2.909,0,0,1-2.6-.245,2.189,2.189,0,0,1-.8-1.4l1.333-.316a1.132,1.132,0,0,0,.32.635.876.876,0,0,0,.627.233.854.854,0,0,0,.831-.411,2.4,2.4,0,0,0,.22-1.134V633.5h1.424l0,5.78Zm4.347-5.78h1.229l3.442,8h-1.627l-.743-1.831h-3.472l-.722,1.831h-1.59Zm1.807,4.946-1.229-3.251-1.254,3.251Zm3.8-4.946h2.687a5.371,5.371,0,0,1,1.109.112,2.855,2.855,0,0,1,.942.378,1.935,1.935,0,0,1,.652.714,2.3,2.3,0,0,1,.241,1.109,2.47,2.47,0,0,1-.261,1.221,1.882,1.882,0,0,1-.7.718,2.885,2.885,0,0,1-1.021.345,8.148,8.148,0,0,1-1.217.091h-1.017v3.305H2814.1l.012-7.993Zm2.28,3.467c.2,0,.415-.008.635-.021a1.823,1.823,0,0,0,.606-.137,1.155,1.155,0,0,0,.452-.336,1.013,1.013,0,0,0,.175-.635.984.984,0,0,0-.158-.59,1,1,0,0,0-.406-.336,1.708,1.708,0,0,0-.552-.154,5.687,5.687,0,0,0-.586-.037h-1.017v2.251h.851Zm6.4-3.467h1.229l3.443,8h-1.628l-.743-1.831h-3.472l-.722,1.831h-1.591Zm1.811,4.946-1.229-3.251-1.254,3.251Zm3.787-4.946h1.889l3.874,5.942h.021V633.5h1.424v8h-1.806l-3.953-6.137h-.021V641.5h-1.424l0-8Z" transform="translate(-2683.158 -607.194)" class="b" fill="#FFFFFF"></path></svg>