<svg width="1440" height="793" viewBox="0 0 1440 793" fill="none" xmlns="http://www.w3.org/2000/svg">
<mask id="mask0_1570_3102" style="mask-type:alpha" maskUnits="userSpaceOnUse" x="0" y="0" width="1441" height="793">
<ellipse cx="720" cy="396.361" rx="720" ry="396.361" fill="url(#paint0_radial_1570_3102)"/>
</mask>
<g mask="url(#mask0_1570_3102)">
<line x1="-427.642" y1="751.857" x2="579.751" y2="170.238" stroke="#8247E5" stroke-width="0.431468"/>
<line x1="-436.272" y1="736.91" x2="571.121" y2="155.291" stroke="#8247E5" stroke-width="0.431468"/>
<line x1="-444.901" y1="721.964" x2="562.492" y2="140.345" stroke="#8247E5" stroke-width="0.431468"/>
<line x1="-453.53" y1="707.016" x2="553.864" y2="125.398" stroke="#8247E5" stroke-width="0.431468"/>
<line x1="-462.16" y1="692.071" x2="545.234" y2="110.452" stroke="#8247E5" stroke-width="0.431468"/>
<line x1="-470.79" y1="677.124" x2="536.604" y2="95.5049" stroke="#8247E5" stroke-width="0.431468"/>
<line x1="-479.417" y1="662.177" x2="527.976" y2="80.5587" stroke="#8247E5" stroke-width="0.431468"/>
<line x1="-488.047" y1="647.231" x2="519.346" y2="65.6121" stroke="#8247E5" stroke-width="0.431468"/>
<line x1="-496.676" y1="632.284" x2="510.717" y2="50.6653" stroke="#8247E5" stroke-width="0.431468"/>
<line x1="-505.306" y1="617.338" x2="502.087" y2="35.7193" stroke="#8247E5" stroke-width="0.431468"/>
<line x1="-513.936" y1="602.391" x2="493.457" y2="20.7723" stroke="#8247E5" stroke-width="0.431468"/>
<line x1="-522.565" y1="587.445" x2="484.828" y2="5.82623" stroke="#8247E5" stroke-width="0.431468"/>
<line x1="-531.195" y1="572.499" x2="476.198" y2="-9.12006" stroke="#8247E5" stroke-width="0.431468"/>
<line x1="-539.824" y1="557.552" x2="467.57" y2="-24.0668" stroke="#8247E5" stroke-width="0.431468"/>
<line x1="-548.453" y1="542.606" x2="458.941" y2="-39.0129" stroke="#8247E5" stroke-width="0.431468"/>
<line x1="-557.082" y1="527.659" x2="450.311" y2="-53.9599" stroke="#8247E5" stroke-width="0.431468"/>
<line x1="-565.711" y1="512.713" x2="441.682" y2="-68.9062" stroke="#8247E5" stroke-width="0.431468"/>
<line x1="-574.341" y1="497.766" x2="433.052" y2="-83.8525" stroke="#8247E5" stroke-width="0.431468"/>
<line x1="-582.97" y1="482.819" x2="424.423" y2="-98.7995" stroke="#8247E5" stroke-width="0.431468"/>
<line x1="-591.6" y1="467.874" x2="415.793" y2="-113.745" stroke="#8247E5" stroke-width="0.431468"/>
<line x1="-600.229" y1="452.926" x2="407.164" y2="-128.692" stroke="#8247E5" stroke-width="0.431468"/>
<line x1="-608.859" y1="437.98" x2="398.534" y2="-143.639" stroke="#8247E5" stroke-width="0.431468"/>
<line x1="-237.795" y1="1080.68" x2="769.598" y2="499.06" stroke="#8247E5" stroke-width="0.431468"/>
<line x1="-246.424" y1="1065.73" x2="760.969" y2="484.114" stroke="#8247E5" stroke-width="0.431468"/>
<line x1="-255.053" y1="1050.79" x2="752.34" y2="469.168" stroke="#8247E5" stroke-width="0.431468"/>
<line x1="-263.683" y1="1035.84" x2="743.71" y2="454.221" stroke="#8247E5" stroke-width="0.431468"/>
<line x1="-272.312" y1="1020.89" x2="735.081" y2="439.275" stroke="#8247E5" stroke-width="0.431468"/>
<line x1="-280.942" y1="1005.95" x2="726.451" y2="424.328" stroke="#8247E5" stroke-width="0.431468"/>
<line x1="-289.572" y1="991" x2="717.822" y2="409.382" stroke="#8247E5" stroke-width="0.431468"/>
<line x1="-298.201" y1="976.054" x2="709.193" y2="394.435" stroke="#8247E5" stroke-width="0.431468"/>
<line x1="-306.83" y1="961.107" x2="700.564" y2="379.489" stroke="#8247E5" stroke-width="0.431468"/>
<line x1="-315.459" y1="946.161" x2="691.934" y2="364.542" stroke="#8247E5" stroke-width="0.431468"/>
<line x1="-324.088" y1="931.214" x2="683.305" y2="349.596" stroke="#8247E5" stroke-width="0.431468"/>
<line x1="-332.718" y1="916.268" x2="674.675" y2="334.649" stroke="#8247E5" stroke-width="0.431468"/>
<line x1="-341.348" y1="901.321" x2="666.045" y2="319.702" stroke="#8247E5" stroke-width="0.431468"/>
<line x1="-349.977" y1="886.375" x2="657.416" y2="304.756" stroke="#8247E5" stroke-width="0.431468"/>
<line x1="-358.607" y1="871.429" x2="648.786" y2="289.81" stroke="#8247E5" stroke-width="0.431468"/>
<line x1="-367.236" y1="856.482" x2="640.157" y2="274.863" stroke="#8247E5" stroke-width="0.431468"/>
<line x1="-375.866" y1="841.535" x2="631.528" y2="259.917" stroke="#8247E5" stroke-width="0.431468"/>
<line x1="-384.495" y1="826.589" x2="622.899" y2="244.97" stroke="#8247E5" stroke-width="0.431468"/>
<line x1="-393.123" y1="811.643" x2="614.27" y2="230.024" stroke="#8247E5" stroke-width="0.431468"/>
<line x1="-401.752" y1="796.696" x2="605.641" y2="215.078" stroke="#8247E5" stroke-width="0.431468"/>
<line x1="-410.382" y1="781.749" x2="597.011" y2="200.131" stroke="#8247E5" stroke-width="0.431468"/>
<line x1="-419.012" y1="766.803" x2="588.381" y2="185.184" stroke="#8247E5" stroke-width="0.431468"/>
<line x1="-73.8374" y1="1364.66" x2="933.556" y2="783.044" stroke="#8247E5" stroke-width="0.431468"/>
<line x1="-82.4663" y1="1349.72" x2="924.927" y2="768.098" stroke="#8247E5" stroke-width="0.431468"/>
<line x1="-91.0961" y1="1334.77" x2="916.297" y2="753.151" stroke="#8247E5" stroke-width="0.431468"/>
<line x1="-99.7251" y1="1319.82" x2="907.668" y2="738.205" stroke="#8247E5" stroke-width="0.431468"/>
<line x1="-108.355" y1="1304.88" x2="899.038" y2="723.258" stroke="#8247E5" stroke-width="0.431468"/>
<line x1="-116.984" y1="1289.93" x2="890.409" y2="708.311" stroke="#8247E5" stroke-width="0.431468"/>
<line x1="-125.614" y1="1274.98" x2="881.78" y2="693.365" stroke="#8247E5" stroke-width="0.431468"/>
<line x1="-134.243" y1="1260.04" x2="873.151" y2="678.419" stroke="#8247E5" stroke-width="0.431468"/>
<line x1="-142.872" y1="1245.09" x2="864.522" y2="663.472" stroke="#8247E5" stroke-width="0.431468"/>
<line x1="-151.501" y1="1230.14" x2="855.892" y2="648.525" stroke="#8247E5" stroke-width="0.431468"/>
<line x1="-160.131" y1="1215.2" x2="847.262" y2="633.579" stroke="#8247E5" stroke-width="0.431468"/>
<line x1="-168.759" y1="1200.25" x2="838.634" y2="618.633" stroke="#8247E5" stroke-width="0.431468"/>
<line x1="-177.39" y1="1185.3" x2="830.003" y2="603.686" stroke="#8247E5" stroke-width="0.431468"/>
<line x1="-186.019" y1="1170.36" x2="821.374" y2="588.74" stroke="#8247E5" stroke-width="0.431468"/>
<line x1="-194.648" y1="1155.41" x2="812.745" y2="573.793" stroke="#8247E5" stroke-width="0.431468"/>
<line x1="-203.277" y1="1140.47" x2="804.116" y2="558.846" stroke="#8247E5" stroke-width="0.431468"/>
<line x1="-211.907" y1="1125.52" x2="795.487" y2="543.9" stroke="#8247E5" stroke-width="0.431468"/>
<line x1="-220.537" y1="1110.57" x2="786.857" y2="528.954" stroke="#8247E5" stroke-width="0.431468"/>
<line x1="-229.166" y1="1095.63" x2="778.227" y2="514.007" stroke="#8247E5" stroke-width="0.431468"/>
<line x1="579.947" y1="170.105" x2="1587.34" y2="-411.514" stroke="#8247E5" stroke-width="0.431468"/>
<line x1="571.318" y1="155.158" x2="1578.71" y2="-426.461" stroke="#8247E5" stroke-width="0.431468"/>
<line x1="562.689" y1="140.212" x2="1570.08" y2="-441.407" stroke="#8247E5" stroke-width="0.431468"/>
<line x1="554.059" y1="125.265" x2="1561.45" y2="-456.354" stroke="#8247E5" stroke-width="0.431468"/>
<line x1="545.43" y1="110.319" x2="1552.82" y2="-471.3" stroke="#8247E5" stroke-width="0.431468"/>
<line x1="536.8" y1="95.3718" x2="1544.19" y2="-486.247" stroke="#8247E5" stroke-width="0.431468"/>
<line x1="528.17" y1="80.4255" x2="1535.56" y2="-501.193" stroke="#8247E5" stroke-width="0.431468"/>
<line x1="519.542" y1="65.4792" x2="1526.93" y2="-516.14" stroke="#8247E5" stroke-width="0.431468"/>
<line x1="510.913" y1="50.5324" x2="1518.31" y2="-531.086" stroke="#8247E5" stroke-width="0.431468"/>
<line x1="502.284" y1="35.5866" x2="1509.68" y2="-546.032" stroke="#8247E5" stroke-width="0.431468"/>
<line x1="493.654" y1="20.6398" x2="1501.05" y2="-560.979" stroke="#8247E5" stroke-width="0.431468"/>
<line x1="485.025" y1="5.69305" x2="1492.42" y2="-575.926" stroke="#8247E5" stroke-width="0.431468"/>
<line x1="769.794" y1="498.927" x2="1777.19" y2="-82.6916" stroke="#8247E5" stroke-width="0.431468"/>
<line x1="761.164" y1="483.981" x2="1768.56" y2="-97.6381" stroke="#8247E5" stroke-width="0.431468"/>
<line x1="752.535" y1="469.034" x2="1759.93" y2="-112.584" stroke="#8247E5" stroke-width="0.431468"/>
<line x1="743.906" y1="454.087" x2="1751.3" y2="-127.532" stroke="#8247E5" stroke-width="0.431468"/>
<line x1="735.277" y1="439.141" x2="1742.67" y2="-142.477" stroke="#8247E5" stroke-width="0.431468"/>
<line x1="726.646" y1="424.195" x2="1734.04" y2="-157.424" stroke="#8247E5" stroke-width="0.431468"/>
<line x1="718.017" y1="409.248" x2="1725.41" y2="-172.371" stroke="#8247E5" stroke-width="0.431468"/>
<line x1="709.388" y1="394.301" x2="1716.78" y2="-187.317" stroke="#8247E5" stroke-width="0.431468"/>
<line x1="700.759" y1="379.355" x2="1708.15" y2="-202.264" stroke="#8247E5" stroke-width="0.431468"/>
<line x1="692.129" y1="364.409" x2="1699.52" y2="-217.21" stroke="#8247E5" stroke-width="0.431468"/>
<line x1="683.501" y1="349.463" x2="1690.89" y2="-232.156" stroke="#8247E5" stroke-width="0.431468"/>
<line x1="674.871" y1="334.516" x2="1682.26" y2="-247.103" stroke="#8247E5" stroke-width="0.431468"/>
<line x1="666.241" y1="319.57" x2="1673.63" y2="-262.049" stroke="#8247E5" stroke-width="0.431468"/>
<line x1="657.612" y1="304.622" x2="1665.01" y2="-276.997" stroke="#8247E5" stroke-width="0.431468"/>
<line x1="648.982" y1="289.676" x2="1656.38" y2="-291.942" stroke="#8247E5" stroke-width="0.431468"/>
<line x1="640.353" y1="274.73" x2="1647.75" y2="-306.889" stroke="#8247E5" stroke-width="0.431468"/>
<line x1="631.724" y1="259.783" x2="1639.12" y2="-321.835" stroke="#8247E5" stroke-width="0.431468"/>
<line x1="623.094" y1="244.837" x2="1630.49" y2="-336.782" stroke="#8247E5" stroke-width="0.431468"/>
<line x1="614.465" y1="229.89" x2="1621.86" y2="-351.729" stroke="#8247E5" stroke-width="0.431468"/>
<line x1="605.835" y1="214.944" x2="1613.23" y2="-366.675" stroke="#8247E5" stroke-width="0.431468"/>
<line x1="597.207" y1="199.997" x2="1604.6" y2="-381.622" stroke="#8247E5" stroke-width="0.431468"/>
<line x1="588.577" y1="185.051" x2="1595.97" y2="-396.568" stroke="#8247E5" stroke-width="0.431468"/>
<line x1="959.64" y1="827.75" x2="1967.03" y2="246.131" stroke="#8247E5" stroke-width="0.431468"/>
<line x1="951.01" y1="812.803" x2="1958.4" y2="231.185" stroke="#8247E5" stroke-width="0.431468"/>
<line x1="942.381" y1="797.857" x2="1949.77" y2="216.238" stroke="#8247E5" stroke-width="0.431468"/>
<line x1="933.752" y1="782.91" x2="1941.14" y2="201.292" stroke="#8247E5" stroke-width="0.431468"/>
<line x1="925.123" y1="767.965" x2="1932.52" y2="186.346" stroke="#8247E5" stroke-width="0.431468"/>
<line x1="916.493" y1="753.018" x2="1923.89" y2="171.399" stroke="#8247E5" stroke-width="0.431468"/>
<line x1="907.864" y1="738.071" x2="1915.26" y2="156.452" stroke="#8247E5" stroke-width="0.431468"/>
<line x1="899.234" y1="723.125" x2="1906.63" y2="141.506" stroke="#8247E5" stroke-width="0.431468"/>
<line x1="890.606" y1="708.178" x2="1898" y2="126.559" stroke="#8247E5" stroke-width="0.431468"/>
<line x1="881.975" y1="693.232" x2="1889.37" y2="111.613" stroke="#8247E5" stroke-width="0.431468"/>
<line x1="873.346" y1="678.285" x2="1880.74" y2="96.6663" stroke="#8247E5" stroke-width="0.431468"/>
<line x1="864.717" y1="663.339" x2="1872.11" y2="81.7198" stroke="#8247E5" stroke-width="0.431468"/>
<line x1="856.087" y1="648.392" x2="1863.48" y2="66.7733" stroke="#8247E5" stroke-width="0.431468"/>
<line x1="847.459" y1="633.445" x2="1854.85" y2="51.8265" stroke="#8247E5" stroke-width="0.431468"/>
<line x1="838.83" y1="618.499" x2="1846.22" y2="36.8807" stroke="#8247E5" stroke-width="0.431468"/>
<line x1="830.199" y1="603.552" x2="1837.59" y2="21.9337" stroke="#8247E5" stroke-width="0.431468"/>
<line x1="821.57" y1="588.606" x2="1828.96" y2="6.98736" stroke="#8247E5" stroke-width="0.431468"/>
<line x1="812.941" y1="573.66" x2="1820.33" y2="-7.95893" stroke="#8247E5" stroke-width="0.431468"/>
<line x1="804.312" y1="558.713" x2="1811.71" y2="-22.9059" stroke="#8247E5" stroke-width="0.431468"/>
<line x1="795.682" y1="543.767" x2="1803.08" y2="-37.8517" stroke="#8247E5" stroke-width="0.431468"/>
<line x1="787.052" y1="528.82" x2="1794.45" y2="-52.7988" stroke="#8247E5" stroke-width="0.431468"/>
<line x1="778.422" y1="513.874" x2="1785.82" y2="-67.7448" stroke="#8247E5" stroke-width="0.431468"/>
<line x1="1149.48" y1="1156.57" x2="2156.88" y2="574.953" stroke="#8247E5" stroke-width="0.431468"/>
<line x1="1140.86" y1="1141.63" x2="2148.25" y2="560.007" stroke="#8247E5" stroke-width="0.431468"/>
<line x1="1132.23" y1="1126.68" x2="2139.62" y2="545.061" stroke="#8247E5" stroke-width="0.431468"/>
<line x1="1123.6" y1="1111.73" x2="2130.99" y2="530.114" stroke="#8247E5" stroke-width="0.431468"/>
<line x1="1114.97" y1="1096.79" x2="2122.36" y2="515.168" stroke="#8247E5" stroke-width="0.431468"/>
<line x1="1106.34" y1="1081.84" x2="2113.73" y2="500.221" stroke="#8247E5" stroke-width="0.431468"/>
<line x1="1097.71" y1="1066.89" x2="2105.1" y2="485.275" stroke="#8247E5" stroke-width="0.431468"/>
<line x1="1089.08" y1="1051.95" x2="2096.47" y2="470.328" stroke="#8247E5" stroke-width="0.431468"/>
<line x1="1080.45" y1="1037" x2="2087.84" y2="455.381" stroke="#8247E5" stroke-width="0.431468"/>
<line x1="1071.82" y1="1022.05" x2="2079.21" y2="440.435" stroke="#8247E5" stroke-width="0.431468"/>
<line x1="1063.19" y1="1007.11" x2="2070.59" y2="425.489" stroke="#8247E5" stroke-width="0.431468"/>
<line x1="1054.56" y1="992.161" x2="2061.96" y2="410.543" stroke="#8247E5" stroke-width="0.431468"/>
<line x1="1045.93" y1="977.214" x2="2053.33" y2="395.596" stroke="#8247E5" stroke-width="0.431468"/>
<line x1="1037.3" y1="962.268" x2="2044.7" y2="380.649" stroke="#8247E5" stroke-width="0.431468"/>
<line x1="1028.68" y1="947.322" x2="2036.07" y2="365.703" stroke="#8247E5" stroke-width="0.431468"/>
<line x1="1020.05" y1="932.375" x2="2027.44" y2="350.756" stroke="#8247E5" stroke-width="0.431468"/>
<line x1="1011.42" y1="917.429" x2="2018.81" y2="335.81" stroke="#8247E5" stroke-width="0.431468"/>
<line x1="1002.79" y1="902.482" x2="2010.18" y2="320.864" stroke="#8247E5" stroke-width="0.431468"/>
<line x1="994.157" y1="887.536" x2="2001.55" y2="305.917" stroke="#8247E5" stroke-width="0.431468"/>
<line x1="985.527" y1="872.589" x2="1992.92" y2="290.971" stroke="#8247E5" stroke-width="0.431468"/>
<line x1="976.898" y1="857.643" x2="1984.29" y2="276.024" stroke="#8247E5" stroke-width="0.431468"/>
<line x1="968.268" y1="842.696" x2="1975.66" y2="261.078" stroke="#8247E5" stroke-width="0.431468"/>
<line x1="579.835" y1="767.364" x2="-427.559" y2="185.745" stroke="#8247E5" stroke-width="0.431468"/>
<line x1="571.205" y1="782.31" x2="-436.189" y2="200.691" stroke="#8247E5" stroke-width="0.431468"/>
<line x1="562.576" y1="797.257" x2="-444.818" y2="215.638" stroke="#8247E5" stroke-width="0.431468"/>
<line x1="553.946" y1="812.203" x2="-453.447" y2="230.585" stroke="#8247E5" stroke-width="0.431468"/>
<line x1="545.317" y1="827.149" x2="-462.076" y2="245.531" stroke="#8247E5" stroke-width="0.431468"/>
<line x1="536.688" y1="842.096" x2="-470.705" y2="260.477" stroke="#8247E5" stroke-width="0.431468"/>
<line x1="528.058" y1="857.042" x2="-479.335" y2="275.423" stroke="#8247E5" stroke-width="0.431468"/>
<line x1="519.429" y1="871.989" x2="-487.964" y2="290.37" stroke="#8247E5" stroke-width="0.431468"/>
<line x1="510.799" y1="886.936" x2="-496.594" y2="305.317" stroke="#8247E5" stroke-width="0.431468"/>
<line x1="502.17" y1="901.882" x2="-505.223" y2="320.263" stroke="#8247E5" stroke-width="0.431468"/>
<line x1="493.541" y1="916.828" x2="-513.853" y2="335.21" stroke="#8247E5" stroke-width="0.431468"/>
<line x1="484.911" y1="931.775" x2="-522.483" y2="350.156" stroke="#8247E5" stroke-width="0.431468"/>
<line x1="476.282" y1="946.721" x2="-531.111" y2="365.102" stroke="#8247E5" stroke-width="0.431468"/>
<line x1="467.653" y1="961.668" x2="-539.74" y2="380.049" stroke="#8247E5" stroke-width="0.431468"/>
<line x1="459.023" y1="976.615" x2="-548.37" y2="394.996" stroke="#8247E5" stroke-width="0.431468"/>
<line x1="450.393" y1="991.561" x2="-557" y2="409.942" stroke="#8247E5" stroke-width="0.431468"/>
<line x1="441.765" y1="1006.51" x2="-565.628" y2="424.888" stroke="#8247E5" stroke-width="0.431468"/>
<line x1="433.135" y1="1021.45" x2="-574.258" y2="439.835" stroke="#8247E5" stroke-width="0.431468"/>
<line x1="424.506" y1="1036.4" x2="-582.887" y2="454.782" stroke="#8247E5" stroke-width="0.431468"/>
<line x1="415.877" y1="1051.35" x2="-591.517" y2="469.728" stroke="#8247E5" stroke-width="0.431468"/>
<line x1="407.248" y1="1066.29" x2="-600.146" y2="484.675" stroke="#8247E5" stroke-width="0.431468"/>
<line x1="398.618" y1="1081.24" x2="-608.776" y2="499.621" stroke="#8247E5" stroke-width="0.431468"/>
<line x1="769.681" y1="438.541" x2="-237.712" y2="-143.078" stroke="#8247E5" stroke-width="0.431468"/>
<line x1="761.051" y1="453.487" x2="-246.342" y2="-128.132" stroke="#8247E5" stroke-width="0.431468"/>
<line x1="752.421" y1="468.434" x2="-254.972" y2="-113.185" stroke="#8247E5" stroke-width="0.431468"/>
<line x1="743.793" y1="483.38" x2="-263.601" y2="-98.2384" stroke="#8247E5" stroke-width="0.431468"/>
<line x1="735.164" y1="498.326" x2="-272.23" y2="-83.2924" stroke="#8247E5" stroke-width="0.431468"/>
<line x1="726.534" y1="513.273" x2="-280.86" y2="-68.3456" stroke="#8247E5" stroke-width="0.431468"/>
<line x1="717.905" y1="528.22" x2="-289.488" y2="-53.3991" stroke="#8247E5" stroke-width="0.431468"/>
<line x1="709.275" y1="543.166" x2="-298.118" y2="-38.4528" stroke="#8247E5" stroke-width="0.431468"/>
<line x1="700.646" y1="558.113" x2="-306.747" y2="-23.506" stroke="#8247E5" stroke-width="0.431468"/>
<line x1="692.016" y1="573.059" x2="-315.377" y2="-8.55994" stroke="#8247E5" stroke-width="0.431468"/>
<line x1="683.386" y1="588.005" x2="-324.007" y2="6.38659" stroke="#8247E5" stroke-width="0.431468"/>
<line x1="674.756" y1="602.952" x2="-332.637" y2="21.3331" stroke="#8247E5" stroke-width="0.431468"/>
<line x1="666.128" y1="617.899" x2="-341.265" y2="36.2797" stroke="#8247E5" stroke-width="0.431468"/>
<line x1="657.499" y1="632.845" x2="-349.895" y2="51.2262" stroke="#8247E5" stroke-width="0.431468"/>
<line x1="648.87" y1="647.792" x2="-358.524" y2="66.1727" stroke="#8247E5" stroke-width="0.431468"/>
<line x1="640.24" y1="662.738" x2="-367.153" y2="81.1193" stroke="#8247E5" stroke-width="0.431468"/>
<line x1="631.612" y1="677.685" x2="-375.781" y2="96.0658" stroke="#8247E5" stroke-width="0.431468"/>
<line x1="622.981" y1="692.631" x2="-384.412" y2="111.012" stroke="#8247E5" stroke-width="0.431468"/>
<line x1="614.352" y1="707.578" x2="-393.041" y2="125.959" stroke="#8247E5" stroke-width="0.431468"/>
<line x1="605.723" y1="722.524" x2="-401.67" y2="140.905" stroke="#8247E5" stroke-width="0.431468"/>
<line x1="597.094" y1="737.471" x2="-410.299" y2="155.852" stroke="#8247E5" stroke-width="0.431468"/>
<line x1="588.464" y1="752.417" x2="-418.929" y2="170.798" stroke="#8247E5" stroke-width="0.431468"/>
<line x1="959.526" y1="109.719" x2="-47.8673" y2="-471.9" stroke="#8247E5" stroke-width="0.431468"/>
<line x1="950.896" y1="124.665" x2="-56.4972" y2="-456.953" stroke="#8247E5" stroke-width="0.431468"/>
<line x1="942.266" y1="139.612" x2="-65.1271" y2="-442.007" stroke="#8247E5" stroke-width="0.431468"/>
<line x1="933.637" y1="154.558" x2="-73.756" y2="-427.06" stroke="#8247E5" stroke-width="0.431468"/>
<line x1="925.009" y1="169.505" x2="-82.3839" y2="-412.114" stroke="#8247E5" stroke-width="0.431468"/>
<line x1="916.379" y1="184.451" x2="-91.0138" y2="-397.167" stroke="#8247E5" stroke-width="0.431468"/>
<line x1="907.75" y1="199.398" x2="-99.6437" y2="-382.221" stroke="#8247E5" stroke-width="0.431468"/>
<line x1="899.121" y1="214.345" x2="-108.273" y2="-367.274" stroke="#8247E5" stroke-width="0.431468"/>
<line x1="890.492" y1="229.291" x2="-116.902" y2="-352.328" stroke="#8247E5" stroke-width="0.431468"/>
<line x1="881.862" y1="244.237" x2="-125.531" y2="-337.382" stroke="#8247E5" stroke-width="0.431468"/>
<line x1="873.232" y1="259.183" x2="-134.161" y2="-322.435" stroke="#8247E5" stroke-width="0.431468"/>
<line x1="864.603" y1="274.13" x2="-142.79" y2="-307.489" stroke="#8247E5" stroke-width="0.431468"/>
<line x1="855.974" y1="289.077" x2="-151.419" y2="-292.542" stroke="#8247E5" stroke-width="0.431468"/>
<line x1="847.344" y1="304.023" x2="-160.049" y2="-277.596" stroke="#8247E5" stroke-width="0.431468"/>
<line x1="838.714" y1="318.97" x2="-168.679" y2="-262.649" stroke="#8247E5" stroke-width="0.431468"/>
<line x1="830.085" y1="333.916" x2="-177.309" y2="-247.703" stroke="#8247E5" stroke-width="0.431468"/>
<line x1="821.457" y1="348.863" x2="-185.937" y2="-232.756" stroke="#8247E5" stroke-width="0.431468"/>
<line x1="812.827" y1="363.81" x2="-194.567" y2="-217.809" stroke="#8247E5" stroke-width="0.431468"/>
<line x1="804.198" y1="378.756" x2="-203.195" y2="-202.863" stroke="#8247E5" stroke-width="0.431468"/>
<line x1="795.568" y1="393.702" x2="-211.825" y2="-187.917" stroke="#8247E5" stroke-width="0.431468"/>
<line x1="786.94" y1="408.649" x2="-220.453" y2="-172.97" stroke="#8247E5" stroke-width="0.431468"/>
<line x1="778.31" y1="423.595" x2="-229.083" y2="-158.024" stroke="#8247E5" stroke-width="0.431468"/>
<line x1="1019.93" y1="5.09308" x2="12.5379" y2="-576.526" stroke="#8247E5" stroke-width="0.431468"/>
<line x1="1011.3" y1="20.0394" x2="3.90904" y2="-561.579" stroke="#8247E5" stroke-width="0.431468"/>
<line x1="1002.67" y1="34.9866" x2="-4.71987" y2="-546.632" stroke="#8247E5" stroke-width="0.431468"/>
<line x1="994.044" y1="49.9329" x2="-13.3497" y2="-531.686" stroke="#8247E5" stroke-width="0.431468"/>
<line x1="985.414" y1="64.8792" x2="-21.9796" y2="-516.74" stroke="#8247E5" stroke-width="0.431468"/>
<line x1="976.785" y1="79.826" x2="-30.6085" y2="-501.793" stroke="#8247E5" stroke-width="0.431468"/>
<line x1="968.156" y1="94.7723" x2="-39.2374" y2="-486.847" stroke="#8247E5" stroke-width="0.431468"/>
<line x1="1587.34" y1="1349.06" x2="579.949" y2="767.445" stroke="#8247E5" stroke-width="0.431468"/>
<line x1="1578.71" y1="1364.01" x2="571.319" y2="782.392" stroke="#8247E5" stroke-width="0.431468"/>
<line x1="1777.19" y1="1020.24" x2="769.795" y2="438.622" stroke="#8247E5" stroke-width="0.431468"/>
<line x1="1768.56" y1="1035.19" x2="761.165" y2="453.569" stroke="#8247E5" stroke-width="0.431468"/>
<line x1="1759.93" y1="1050.13" x2="752.536" y2="468.515" stroke="#8247E5" stroke-width="0.431468"/>
<line x1="1751.3" y1="1065.08" x2="743.906" y2="483.462" stroke="#8247E5" stroke-width="0.431468"/>
<line x1="1742.67" y1="1080.03" x2="735.277" y2="498.408" stroke="#8247E5" stroke-width="0.431468"/>
<line x1="1734.04" y1="1094.97" x2="726.647" y2="513.355" stroke="#8247E5" stroke-width="0.431468"/>
<line x1="1725.41" y1="1109.92" x2="718.018" y2="528.301" stroke="#8247E5" stroke-width="0.431468"/>
<line x1="1716.78" y1="1124.87" x2="709.389" y2="543.247" stroke="#8247E5" stroke-width="0.431468"/>
<line x1="1708.15" y1="1139.81" x2="700.76" y2="558.194" stroke="#8247E5" stroke-width="0.431468"/>
<line x1="1699.52" y1="1154.76" x2="692.131" y2="573.14" stroke="#8247E5" stroke-width="0.431468"/>
<line x1="1690.89" y1="1169.71" x2="683.5" y2="588.087" stroke="#8247E5" stroke-width="0.431468"/>
<line x1="1682.26" y1="1184.65" x2="674.871" y2="603.034" stroke="#8247E5" stroke-width="0.431468"/>
<line x1="1673.64" y1="1199.6" x2="666.242" y2="617.98" stroke="#8247E5" stroke-width="0.431468"/>
<line x1="1665.01" y1="1214.55" x2="657.612" y2="632.927" stroke="#8247E5" stroke-width="0.431468"/>
<line x1="1656.38" y1="1229.49" x2="648.983" y2="647.873" stroke="#8247E5" stroke-width="0.431468"/>
<line x1="1647.75" y1="1244.44" x2="640.353" y2="662.819" stroke="#8247E5" stroke-width="0.431468"/>
<line x1="1639.12" y1="1259.39" x2="631.725" y2="677.766" stroke="#8247E5" stroke-width="0.431468"/>
<line x1="1630.49" y1="1274.33" x2="623.096" y2="692.712" stroke="#8247E5" stroke-width="0.431468"/>
<line x1="1621.86" y1="1289.28" x2="614.466" y2="707.659" stroke="#8247E5" stroke-width="0.431468"/>
<line x1="1613.23" y1="1304.22" x2="605.837" y2="722.605" stroke="#8247E5" stroke-width="0.431468"/>
<line x1="1604.6" y1="1319.17" x2="597.208" y2="737.552" stroke="#8247E5" stroke-width="0.431468"/>
<line x1="1595.97" y1="1334.12" x2="588.578" y2="752.499" stroke="#8247E5" stroke-width="0.431468"/>
<line x1="1967.03" y1="691.419" x2="959.641" y2="109.8" stroke="#8247E5" stroke-width="0.431468"/>
<line x1="1958.4" y1="706.365" x2="951.011" y2="124.746" stroke="#8247E5" stroke-width="0.431468"/>
<line x1="1949.77" y1="721.312" x2="942.381" y2="139.693" stroke="#8247E5" stroke-width="0.431468"/>
<line x1="1941.14" y1="736.259" x2="933.751" y2="154.64" stroke="#8247E5" stroke-width="0.431468"/>
<line x1="1932.52" y1="751.205" x2="925.123" y2="169.586" stroke="#8247E5" stroke-width="0.431468"/>
<line x1="1923.89" y1="766.151" x2="916.493" y2="184.532" stroke="#8247E5" stroke-width="0.431468"/>
<line x1="1915.26" y1="781.097" x2="907.863" y2="199.479" stroke="#8247E5" stroke-width="0.431468"/>
<line x1="1906.63" y1="796.044" x2="899.233" y2="214.425" stroke="#8247E5" stroke-width="0.431468"/>
<line x1="1898" y1="810.991" x2="890.604" y2="229.372" stroke="#8247E5" stroke-width="0.431468"/>
<line x1="1889.37" y1="825.937" x2="881.974" y2="244.318" stroke="#8247E5" stroke-width="0.431468"/>
<line x1="1880.74" y1="840.883" x2="873.346" y2="259.265" stroke="#8247E5" stroke-width="0.431468"/>
<line x1="1872.11" y1="855.83" x2="864.717" y2="274.211" stroke="#8247E5" stroke-width="0.431468"/>
<line x1="1863.48" y1="870.776" x2="856.088" y2="289.158" stroke="#8247E5" stroke-width="0.431468"/>
<line x1="1854.85" y1="885.723" x2="847.458" y2="304.105" stroke="#8247E5" stroke-width="0.431468"/>
<line x1="1846.22" y1="900.669" x2="838.829" y2="319.051" stroke="#8247E5" stroke-width="0.431468"/>
<line x1="1837.59" y1="915.616" x2="830.199" y2="333.997" stroke="#8247E5" stroke-width="0.431468"/>
<line x1="1828.96" y1="930.562" x2="821.57" y2="348.943" stroke="#8247E5" stroke-width="0.431468"/>
<line x1="1820.33" y1="945.509" x2="812.94" y2="363.891" stroke="#8247E5" stroke-width="0.431468"/>
<line x1="1811.7" y1="960.456" x2="804.311" y2="378.837" stroke="#8247E5" stroke-width="0.431468"/>
<line x1="1803.07" y1="975.402" x2="795.682" y2="393.783" stroke="#8247E5" stroke-width="0.431468"/>
<line x1="1794.45" y1="990.348" x2="787.053" y2="408.73" stroke="#8247E5" stroke-width="0.431468"/>
<line x1="1785.82" y1="1005.29" x2="778.424" y2="423.676" stroke="#8247E5" stroke-width="0.431468"/>
<line x1="2156.88" y1="362.596" x2="1149.49" y2="-219.023" stroke="#8247E5" stroke-width="0.431468"/>
<line x1="2148.25" y1="377.542" x2="1140.86" y2="-204.077" stroke="#8247E5" stroke-width="0.431468"/>
<line x1="2139.62" y1="392.489" x2="1132.23" y2="-189.13" stroke="#8247E5" stroke-width="0.431468"/>
<line x1="2130.99" y1="407.435" x2="1123.6" y2="-174.183" stroke="#8247E5" stroke-width="0.431468"/>
<line x1="2122.36" y1="422.382" x2="1114.97" y2="-159.237" stroke="#8247E5" stroke-width="0.431468"/>
<line x1="2113.73" y1="437.328" x2="1106.34" y2="-144.291" stroke="#8247E5" stroke-width="0.431468"/>
<line x1="2105.1" y1="452.275" x2="1097.71" y2="-129.344" stroke="#8247E5" stroke-width="0.431468"/>
<line x1="2096.47" y1="467.221" x2="1089.08" y2="-114.398" stroke="#8247E5" stroke-width="0.431468"/>
<line x1="2087.85" y1="482.168" x2="1080.45" y2="-99.4511" stroke="#8247E5" stroke-width="0.431468"/>
<line x1="2079.22" y1="497.114" x2="1071.82" y2="-84.5048" stroke="#8247E5" stroke-width="0.431468"/>
<line x1="2070.59" y1="512.06" x2="1063.19" y2="-69.5585" stroke="#8247E5" stroke-width="0.431468"/>
<line x1="2061.96" y1="527.007" x2="1054.56" y2="-54.6117" stroke="#8247E5" stroke-width="0.431468"/>
<line x1="2053.33" y1="541.954" x2="1045.93" y2="-39.6652" stroke="#8247E5" stroke-width="0.431468"/>
<line x1="2044.7" y1="556.9" x2="1037.3" y2="-24.7186" stroke="#8247E5" stroke-width="0.431468"/>
<line x1="2036.07" y1="571.847" x2="1028.68" y2="-9.7721" stroke="#8247E5" stroke-width="0.431468"/>
<line x1="2027.44" y1="586.793" x2="1020.05" y2="5.17419" stroke="#8247E5" stroke-width="0.431468"/>
<line x1="2018.81" y1="601.739" x2="1011.42" y2="20.1205" stroke="#8247E5" stroke-width="0.431468"/>
<line x1="2010.18" y1="616.686" x2="1002.79" y2="35.0675" stroke="#8247E5" stroke-width="0.431468"/>
<line x1="2001.55" y1="631.633" x2="994.158" y2="50.014" stroke="#8247E5" stroke-width="0.431468"/>
<line x1="1992.92" y1="646.579" x2="985.528" y2="64.9601" stroke="#8247E5" stroke-width="0.431468"/>
<line x1="1984.29" y1="661.525" x2="976.899" y2="79.9066" stroke="#8247E5" stroke-width="0.431468"/>
<line x1="1975.66" y1="676.472" x2="968.27" y2="94.8534" stroke="#8247E5" stroke-width="0.431468"/>
</g>
<path d="M360.103 409.874L758.55 177.615L1115.92 383.582L717.474 615.841L360.103 409.874Z" fill="#0A111B"/>
<g clip-path="url(#clip0_1570_3102)">
<path d="M786.802 239.138L786.392 265.02C785.086 264.22 783.72 263.525 782.305 262.941L782.722 237.059C784.135 237.643 785.499 238.338 786.802 239.138" fill="#350080"/>
<path d="M782.722 237.06L782.305 262.942C781.696 262.697 781.075 262.483 780.444 262.3L780.855 236.424C781.488 236.605 782.112 236.819 782.722 237.066" fill="#350080"/>
<path d="M780.855 236.412L780.445 262.287C780.017 262.168 779.606 262.065 779.213 261.979L779.624 236.097C780.028 236.187 780.438 236.29 780.855 236.412" fill="#350080"/>
<path d="M779.623 236.097L779.212 261.979C778.885 261.909 778.571 261.851 778.25 261.806L778.667 235.93C778.981 235.975 779.309 236.033 779.623 236.097" fill="#350080"/>
<path d="M778.667 235.93L778.25 261.805C777.968 261.767 777.692 261.735 777.416 261.716L777.827 235.833L778.667 235.93" fill="#350080"/>
<path d="M777.827 235.834L777.417 261.716L776.621 261.678L777.038 235.795L777.827 235.834Z" fill="#350080"/>
<path d="M777.037 235.795L776.62 261.678C776.351 261.678 776.088 261.678 775.818 261.678L776.235 235.808C776.505 235.808 776.774 235.808 777.044 235.808" fill="#350080"/>
<path d="M776.236 235.808L775.825 261.69C775.523 261.69 775.222 261.729 774.927 261.761L775.337 235.885C775.639 235.847 775.934 235.821 776.236 235.808Z" fill="#350080"/>
<path d="M775.331 235.885L774.952 261.761C774.554 261.812 774.163 261.876 773.771 261.966L774.182 236.084C774.573 236.001 774.971 235.93 775.363 235.885" fill="#350080"/>
<path d="M774.151 236.084L773.741 261.967C772.309 262.295 770.937 262.843 769.673 263.59L770.083 237.714C771.348 236.965 772.72 236.415 774.151 236.084" fill="#350080"/>
<path d="M770.083 237.714L769.673 263.59L762.73 267.607L763.148 241.724L770.083 237.714Z" fill="#350080"/>
<path d="M795.798 244.573L795.388 270.448L786.393 265.02L786.803 239.138L795.798 244.573Z" fill="#350080"/>
<path d="M801.052 250.533L800.616 276.415C800.616 274.632 799.057 272.681 795.361 270.448L795.772 244.573C799.468 246.799 801.059 248.75 801.027 250.533" fill="#350080"/>
<path d="M817.299 246.542L816.889 272.425C816.889 272.521 816.889 272.624 816.889 272.72L817.299 246.838C817.299 246.741 817.299 246.645 817.299 246.542" fill="#4A4A4A"/>
<path d="M817.253 246.837L816.843 272.72C816.817 273.137 816.757 273.551 816.663 273.958L817.074 248.076C817.172 247.669 817.232 247.255 817.253 246.837" fill="#4D4D4D"/>
<path d="M817.074 248.076L816.657 273.958C816.549 274.396 816.408 274.825 816.233 275.241L816.657 249.372C816.833 248.956 816.974 248.527 817.08 248.089" fill="#4F4F4F"/>
<path d="M816.656 249.372L816.246 275.254C816.035 275.757 815.784 276.241 815.495 276.704L815.906 250.822C816.196 250.36 816.447 249.875 816.656 249.372" fill="#525252"/>
<path d="M815.9 250.822L815.489 276.704L815.9 250.822Z" fill="#545454"/>
<path d="M830.227 265.194L829.81 291.076C828.171 290.066 826.455 289.189 824.677 288.452L825.087 262.57C826.865 263.307 828.582 264.184 830.22 265.194" fill="#350080"/>
<path d="M825.081 262.57L824.671 288.452C823.933 288.148 823.179 287.885 822.412 287.663L822.823 261.781C823.561 261.999 824.311 262.262 825.081 262.57Z" fill="#350080"/>
<path d="M822.823 261.78L822.432 287.662C821.938 287.515 821.45 287.393 820.969 287.29L821.379 261.415C821.861 261.511 822.348 261.639 822.842 261.78" fill="#350080"/>
<path d="M821.359 261.415L820.949 287.291C820.564 287.207 820.179 287.143 819.794 287.085L820.211 261.209C820.59 261.261 820.974 261.331 821.359 261.415" fill="#350080"/>
<path d="M820.21 261.21L819.793 287.085C819.453 287.041 819.152 287.002 818.786 286.976L819.222 261.094C819.556 261.094 819.864 261.158 820.23 261.21" fill="#350080"/>
<path d="M819.223 261.094L818.806 286.976C818.485 286.976 818.164 286.931 817.85 286.931L818.267 261.049C818.581 261.049 818.908 261.049 819.223 261.094Z" fill="#350080"/>
<path d="M818.248 261.049L817.831 286.931C817.503 286.931 817.189 286.931 816.855 286.931L817.298 261.062C817.619 261.062 817.94 261.062 818.273 261.062" fill="#350080"/>
<path d="M817.298 261.062L816.881 286.944C816.515 286.944 816.156 286.989 815.79 287.034L816.207 261.152C816.566 261.113 816.932 261.081 817.298 261.062" fill="#350080"/>
<path d="M816.181 261.152L815.764 287.034C815.27 287.092 814.78 287.176 814.295 287.284L814.731 261.408C815.225 261.299 815.713 261.216 816.207 261.152" fill="#350080"/>
<path d="M814.732 261.409L814.321 287.284C812.38 287.742 810.522 288.495 808.81 289.517L809.22 263.641C810.931 262.616 812.79 261.863 814.732 261.409" fill="#350080"/>
<path d="M809.195 263.641L808.784 289.517L803.806 292.398L804.223 266.515L809.195 263.641Z" fill="#350080"/>
<path d="M844.566 273.855L844.156 299.731L829.81 291.076L830.227 265.194L844.566 273.855Z" fill="#350080"/>
<path d="M857.077 279.866L856.666 305.742C855.46 305.37 854.427 305.062 853.188 304.561L853.599 278.679C854.837 279.18 855.87 279.494 857.077 279.866" fill="#350080"/>
<path d="M857.077 279.866L856.666 305.742C855.46 305.37 854.427 305.062 853.188 304.561L853.599 278.679C854.837 279.18 855.87 279.494 857.077 279.866" fill="url(#paint1_linear_1570_3102)"/>
<path d="M853.612 278.68L853.227 304.562C851.251 303.766 848.736 302.49 844.181 299.731L844.591 273.855C849.159 276.607 851.649 277.884 853.638 278.68" fill="#350080"/>
<path d="M853.612 278.68L853.227 304.562C851.251 303.766 848.736 302.49 844.181 299.731L844.591 273.855C849.159 276.607 851.649 277.884 853.638 278.68" fill="url(#paint2_linear_1570_3102)"/>
<path d="M871.75 271.385L871.339 297.267L856.679 305.743L857.089 279.867L871.75 271.385Z" fill="#5F00E5"/>
<path d="M841.384 288.946L840.967 314.828L826.569 323.149L826.986 297.274L841.384 288.946Z" fill="#5F00E5"/>
<path d="M826.986 297.273L826.569 323.149L735.295 268.055L735.706 242.179L826.986 297.273Z" fill="#350080"/>
<path d="M859.099 265.604C863.532 268.279 866.92 270.172 871.751 271.378L857.078 279.867C853.947 278.904 851.99 278.34 844.553 273.855L830.214 265.193C821.738 260.061 815.726 259.855 809.182 263.641L804.21 266.515L841.371 288.971L826.974 297.312L735.706 242.179L757.437 229.617C772.361 220.987 785.667 221.449 799.783 229.95L806.943 234.262C816.33 239.934 819.313 245.291 815.925 250.809L816.188 250.969C826.383 248.614 835.52 251.348 845.06 257.09L859.099 265.604ZM795.798 244.572L786.816 239.138C780.297 235.205 775.203 234.762 770.096 237.714L763.147 241.724L791.179 258.643L796.812 255.39C802.176 252.284 803.1 248.974 795.798 244.572Z" fill="#DCD4FF"/>
<path d="M740.235 254.966L739.824 280.848L714.956 295.233L715.367 269.351L740.235 254.966Z" fill="#5F00E5"/>
<path d="M773.598 281.137L773.188 307.019L753.42 318.446L753.831 292.571L773.598 281.137Z" fill="#5F00E5"/>
<path d="M818.472 302.195L818.061 328.071L778.789 350.777L779.206 324.901L818.472 302.195Z" fill="#5F00E5"/>
<path d="M779.207 324.901L778.79 350.777L687.516 295.683L687.926 269.807L779.207 324.901Z" fill="#350080"/>
<path d="M727.198 247.1L740.235 254.966L715.367 269.351L740.794 284.698L760.561 273.271L773.599 281.137L753.831 292.57L780.566 308.707L805.435 294.322L818.472 302.194L779.206 324.901L687.926 269.806L727.198 247.1Z" fill="#DCD4FF"/>
<path d="M688.298 316.284L687.887 342.166L666.965 307.571L667.375 281.689L688.298 316.284Z" fill="#350080"/>
<path d="M758.258 337.014L757.848 362.89L707.463 349.031L707.874 323.149L758.258 337.014Z" fill="#350080"/>
<path d="M773.054 328.456L772.637 354.338L757.848 362.89L758.258 337.015L773.054 328.456Z" fill="#5F00E5"/>
<path d="M725.408 356.006L724.991 381.888L633.717 326.794L634.127 300.912L725.408 356.006Z" fill="#350080"/>
<path d="M739.799 347.684L739.389 373.566L724.991 381.888L725.408 356.006L739.799 347.684Z" fill="#5F00E5"/>
<path d="M681.773 273.361L702.433 309.502L773.054 328.455L758.258 337.014L707.873 323.149L711.768 330.765L739.799 347.684L725.408 356.005L634.128 300.911L648.525 292.59L688.035 316.438L688.298 316.284L667.376 281.689L681.773 273.361Z" fill="#DCD4FF"/>
<path d="M633.158 326.299L632.748 352.181C631.627 351.497 630.453 350.902 629.238 350.404L629.649 324.522C630.863 325.022 632.037 325.616 633.158 326.299" fill="#350080"/>
<path d="M629.623 324.523L629.212 350.392C628.618 350.148 628.012 349.934 627.396 349.75L627.807 323.875C628.404 324.048 629.007 324.259 629.623 324.516" fill="#350080"/>
<path d="M627.808 323.894L627.384 349.75C626.961 349.628 626.55 349.526 626.14 349.442L626.55 323.56C626.961 323.643 627.378 323.753 627.795 323.874" fill="#350080"/>
<path d="M626.563 323.579L626.152 349.461C625.812 349.391 625.511 349.326 625.151 349.281L625.568 323.406C625.896 323.451 626.21 323.508 626.563 323.579" fill="#350080"/>
<path d="M625.568 323.406L625.151 349.282C624.849 349.237 624.554 349.205 624.259 349.185L624.676 323.303C624.971 323.303 625.266 323.361 625.568 323.406" fill="#350080"/>
<path d="M624.676 323.304L624.259 349.186C623.977 349.186 623.694 349.147 623.412 349.141L623.823 323.265C624.105 323.265 624.387 323.265 624.676 323.304" fill="#350080"/>
<path d="M623.824 323.265L623.413 349.141C623.124 349.141 622.836 349.141 622.547 349.141L622.964 323.265C623.246 323.265 623.535 323.265 623.824 323.265" fill="#350080"/>
<path d="M622.964 323.278L622.547 349.154C622.226 349.154 621.905 349.198 621.591 349.237L622.008 323.355C622.322 323.316 622.649 323.291 622.964 323.278" fill="#350080"/>
<path d="M622.007 323.355L621.61 349.237C621.182 349.288 620.765 349.359 620.358 349.449L620.769 323.567C621.186 323.477 621.603 323.406 622.052 323.355" fill="#350080"/>
<path d="M620.75 323.567L620.327 349.449C618.891 349.774 617.515 350.32 616.246 351.066C615.697 351.377 615.174 351.731 614.681 352.125L615.098 326.242C615.592 325.85 616.115 325.496 616.663 325.184C617.93 324.439 619.304 323.894 620.737 323.567" fill="#350080"/>
<path d="M615.111 326.242L614.694 352.124C614.374 352.379 614.076 352.66 613.802 352.964L614.219 327.089C614.489 326.779 614.788 326.496 615.111 326.242Z" fill="#350080"/>
<path d="M614.218 327.089L613.801 352.959C613.634 353.161 613.482 353.376 613.346 353.6L613.763 327.718C613.896 327.502 614.049 327.298 614.218 327.109" fill="#350080"/>
<path d="M613.763 327.699L613.346 353.6C613.246 353.762 613.158 353.932 613.083 354.107L613.5 328.231C613.571 328.052 613.659 327.88 613.763 327.718" fill="#350080"/>
<path d="M613.5 328.211L613.083 354.087C613.02 354.244 612.968 354.404 612.929 354.568L613.339 328.693C613.377 328.527 613.431 328.366 613.5 328.211" fill="#350080"/>
<path d="M613.339 328.693L612.928 354.569C612.892 354.727 612.868 354.888 612.857 355.05L613.274 329.168C613.283 329.008 613.304 328.849 613.339 328.693" fill="#350080"/>
<path d="M613.269 329.167L612.852 355.05C612.855 355.088 612.855 355.127 612.852 355.165L613.269 329.283C613.265 329.245 613.265 329.206 613.269 329.167Z" fill="#350080"/>
<path d="M642.911 332.202L642.5 358.084L632.716 352.181L633.133 326.299L642.911 332.202Z" fill="#350080"/>
<path d="M642.911 332.202L642.5 358.084L632.716 352.181L633.133 326.299L642.911 332.202Z" fill="url(#paint3_linear_1570_3102)"/>
<path d="M656.525 324.33L656.115 350.212L642.5 358.084L642.911 332.202L656.525 324.33Z" fill="#5F00E5"/>
<path d="M604.723 343.808L604.287 369.684C596.588 365.045 592.674 360.272 592.738 355.601L593.155 329.725C593.078 334.396 597.005 339.163 604.704 343.84" fill="#350080"/>
<path d="M682.421 356.051L682.011 381.933L668.967 374.06L669.384 348.178L682.421 356.051Z" fill="#350080"/>
<path d="M687.291 361.6L686.88 387.476C686.88 385.821 685.43 383.992 682.011 381.932L682.421 356.05C685.841 358.116 687.323 359.945 687.291 361.6" fill="#350080"/>
<path d="M652.189 372.456L651.772 398.331L604.312 369.684L604.723 343.808L652.189 372.456Z" fill="url(#paint4_linear_1570_3102)"/>
<path d="M706.661 361.709L706.25 387.604C706.25 387.714 706.25 387.829 706.25 387.938L706.661 362.062C706.661 361.947 706.661 361.838 706.661 361.722" fill="#5F00E5"/>
<path d="M706.648 362.049L706.238 387.925C706.207 388.405 706.138 388.881 706.032 389.349L706.443 363.467C706.552 363.001 706.621 362.527 706.648 362.049" fill="#5F00E5"/>
<path d="M706.442 363.467L706.032 389.349C705.915 389.838 705.758 390.317 705.563 390.78L705.974 364.904C706.169 364.439 706.325 363.958 706.442 363.467" fill="#5F00E5"/>
<path d="M705.973 364.905L705.563 390.813C705.336 391.352 705.068 391.874 704.761 392.372L705.171 366.49C705.483 365.996 705.751 365.476 705.973 364.937" fill="#5F00E5"/>
<path d="M705.172 366.431L704.762 392.313C704.354 392.961 703.894 393.574 703.389 394.148L703.806 368.273C704.31 367.696 704.767 367.08 705.172 366.431" fill="#5F00E5"/>
<path d="M703.805 368.298L703.388 394.174C702.577 395.096 701.686 395.944 700.726 396.708L701.136 370.826C702.097 370.062 702.99 369.217 703.805 368.298Z" fill="#5F00E5"/>
<path d="M701.168 370.827L700.758 396.709C699.326 397.844 697.809 398.87 696.222 399.776C692.471 401.969 688.405 403.57 684.166 404.523L684.577 378.648C688.817 377.689 692.885 376.086 696.639 373.894C698.226 372.99 699.74 371.964 701.168 370.827" fill="#5F00E5"/>
<path d="M684.544 378.622L684.134 404.498C682.876 404.772 681.612 404.985 680.342 405.139L680.759 379.257C682.042 379.103 683.304 378.889 684.544 378.616" fill="#5F00E5"/>
<path d="M680.759 379.263L680.342 405.145C679.393 405.261 678.418 405.338 677.487 405.383L677.898 379.507C678.854 379.462 679.823 379.379 680.759 379.263" fill="#5F00E5"/>
<path d="M677.898 379.533L677.487 405.408C676.634 405.447 675.787 405.46 674.921 405.447L675.332 379.565C676.185 379.565 677.038 379.565 677.898 379.533Z" fill="#5F00E5"/>
<path d="M675.345 379.565L674.934 405.447C674.113 405.447 673.291 405.39 672.477 405.325L672.887 379.45C673.708 379.514 674.53 379.552 675.345 379.565" fill="#5F00E5"/>
<path d="M672.886 379.45L672.476 405.326C671.635 405.261 670.795 405.165 669.954 405.05L670.365 379.167C671.205 379.289 672.046 379.379 672.886 379.45Z" fill="#5F00E5"/>
<path d="M670.372 379.167L669.961 405.049C669.044 404.915 668.12 404.754 667.202 404.562L667.619 378.686C668.539 378.879 669.456 379.039 670.372 379.167" fill="#5F00E5"/>
<path d="M667.613 378.686L667.196 404.562C666.092 404.331 664.991 404.055 663.892 403.734L664.302 377.852C665.406 378.173 666.509 378.455 667.613 378.686" fill="#5F00E5"/>
<path d="M664.302 377.852L663.892 403.734C662.369 403.287 660.87 402.762 659.4 402.162L659.811 376.287C661.281 376.884 662.78 377.407 664.302 377.852" fill="#5F00E5"/>
<path d="M659.798 376.287L659.387 402.162C656.749 401.086 654.202 399.799 651.771 398.313L652.189 372.437C654.62 373.918 657.164 375.205 659.798 376.287Z" fill="#5F00E5"/>
<path d="M603.241 317.542C617.356 309.368 633.056 310.163 647.659 318.979L656.526 324.33L642.911 332.202L633.159 326.3C626.64 322.367 621.283 322.533 616.702 325.183C612.121 327.833 611.716 330.996 618.235 334.929L667.523 364.68C674.041 368.613 679.27 368.369 683.851 365.72C688.433 363.07 688.984 359.99 682.446 356.051L669.409 348.178L683.024 340.312L695.15 347.626C709.753 356.442 710.767 365.72 696.632 373.894C682.498 382.068 666.817 381.272 652.214 372.456L604.736 343.809C590.12 334.993 589.106 325.716 603.241 317.542Z" fill="#DCD4FF"/>
<path d="M568.223 358.129L567.813 384.012L567.55 384.159L567.96 358.283L568.223 358.129Z" fill="#626262"/>
<path d="M621.193 382.055L620.776 407.937L567.812 384.012L568.222 358.129L621.193 382.055Z" fill="#350080"/>
<path d="M654.589 396.952L654.178 422.835L635.129 414.276L635.54 388.4L654.589 396.952Z" fill="#350080"/>
<path d="M669.121 388.554L668.704 414.436L654.178 422.835L654.588 396.953L669.121 388.554Z" fill="#5F00E5"/>
<path d="M635.539 388.4L635.129 414.276L617.459 424.496L617.87 398.614L635.539 388.4Z" fill="#5F00E5"/>
<path d="M618.723 417.695L618.306 443.577L541.692 380.001L542.103 354.125L618.723 417.695Z" fill="#350080"/>
<path d="M631.94 410.047L631.529 435.93L618.306 443.577L618.723 417.695L631.94 410.047Z" fill="#5F00E5"/>
<path d="M563.179 341.935L669.12 388.554L654.588 396.959L635.539 388.4L617.869 398.614L631.939 410.06L618.722 417.695L542.103 354.125L563.179 341.935ZM607.315 390.055L621.193 382.029L568.222 358.103L567.959 358.257L607.315 390.055" fill="#DCD4FF"/>
<path d="M545.619 398.325L545.208 424.201L506.09 400.59L506.5 374.714L545.619 398.325Z" fill="#350080"/>
<path d="M558.656 406.192L558.246 432.074L541.885 441.538L542.295 415.655L558.656 406.192Z" fill="#5F00E6"/>
<path d="M597.775 429.803L597.364 455.685L558.246 432.074L558.657 406.192L597.775 429.803Z" fill="#350080"/>
<path d="M612.435 421.327L612.025 447.209L597.364 455.684L597.775 429.802L612.435 421.327Z" fill="#5F00E6"/>
<path d="M567.016 447.594L566.599 473.469L475.325 418.375L475.736 392.5L567.016 447.594Z" fill="#350080"/>
<path d="M581.414 439.266L581.004 465.148L566.6 473.47L567.017 447.594L581.414 439.266Z" fill="#5F00E6"/>
<path d="M521.162 366.233L612.436 421.327L597.775 429.803L558.657 406.192L542.296 415.655L581.414 439.266L567.017 447.594L475.736 392.5L490.14 384.172L529.259 407.783L545.619 398.326L506.501 374.715L521.162 366.233Z" fill="#DCD4FF"/>
<path d="M904.961 308.829L904.479 339.138L875.8 356.243L876.281 325.934L904.961 308.829Z" fill="#5F00E5"/>
<path d="M944.816 339.125L944.335 369.435L921.539 383.03L922.02 352.727L944.816 339.125Z" fill="#5F00E5"/>
<path d="M997.985 363.314L997.504 393.623L952.22 420.635L952.707 390.325L997.985 363.314Z" fill="#5F00E5"/>
<path d="M952.708 390.325L952.22 420.634L843.693 357.07L844.181 326.761L952.708 390.325Z" fill="#350080"/>
<path d="M889.458 299.75L904.959 308.829L876.28 325.934L906.519 343.642L929.308 330.047L944.816 339.125L922.02 352.727L953.804 371.34L982.484 354.229L997.985 363.314L952.707 390.325L844.181 326.762L889.458 299.75Z" fill="#DCD4FF"/>
<path d="M864.43 349.506L863.943 379.816L848.249 389.176L848.73 358.874L864.43 349.506Z" fill="#5F00E5"/>
<path d="M848.73 358.874L848.249 389.177L843.751 386.546L844.232 356.237L848.73 358.874Z" fill="#454545"/>
<path d="M848.73 358.874L848.249 389.177L843.751 386.546L844.232 356.237L848.73 358.874Z" fill="url(#paint5_linear_1570_3102)"/>
<path d="M844.245 356.236L843.764 386.545C842.44 385.762 841.061 385.074 839.639 384.486L840.12 354.183C841.544 354.765 842.923 355.451 844.245 356.236Z" fill="#350080"/>
<path d="M840.106 354.183L839.625 384.486C838.874 384.184 838.137 383.928 837.418 383.716L837.899 353.407C838.648 353.628 839.384 353.887 840.106 354.183" fill="#350080"/>
<path d="M837.9 353.407L837.418 383.716C836.924 383.575 836.437 383.453 835.962 383.351L836.443 353.042C836.924 353.144 837.405 353.266 837.9 353.407Z" fill="#350080"/>
<path d="M836.443 353.041L835.962 383.35C835.57 383.267 835.185 383.203 834.807 383.145L835.294 352.842C835.673 352.894 836.058 352.964 836.443 353.041" fill="#350080"/>
<path d="M835.295 352.843L834.807 383.145C834.467 383.1 834.166 383.062 833.8 383.036L834.281 352.727C834.615 352.727 834.923 352.791 835.295 352.843Z" fill="#350080"/>
<path d="M834.281 352.727L833.8 383.036C833.479 383.036 833.158 382.991 832.844 382.991L833.325 352.682C833.639 352.682 833.967 352.682 834.281 352.727Z" fill="#350080"/>
<path d="M833.338 352.682L832.857 382.991C832.536 382.991 832.215 382.991 831.895 382.991L832.382 352.682C832.697 352.682 833.024 352.682 833.338 352.682Z" fill="#350080"/>
<path d="M832.369 352.695L831.881 383.004C831.528 383.004 831.176 383.049 830.829 383.087L831.31 352.785C831.663 352.74 832.01 352.714 832.369 352.695" fill="#350080"/>
<path d="M831.31 352.785L830.829 383.113C830.367 383.171 829.912 383.248 829.456 383.35L829.944 353.041C830.371 352.947 830.827 352.87 831.31 352.81" fill="#350080"/>
<path d="M829.944 353.016L829.488 383.325C827.827 383.709 826.239 384.359 824.785 385.25C824.212 385.585 823.663 385.96 823.143 386.373L823.624 356.07C824.144 355.655 824.693 355.278 825.266 354.941C826.723 354.051 828.313 353.401 829.976 353.016" fill="#350080"/>
<path d="M823.592 356.057L823.111 386.36C822.741 386.655 822.398 386.982 822.084 387.335L822.572 357.026C822.882 356.673 823.223 356.349 823.592 356.057Z" fill="#350080"/>
<path d="M822.572 357.026L822.084 387.335C821.897 387.548 821.728 387.775 821.577 388.015L822.058 357.706C822.213 357.467 822.384 357.24 822.572 357.026" fill="#350080"/>
<path d="M822.059 357.706L821.578 388.015C821.462 388.199 821.362 388.392 821.276 388.592L821.79 358.283C821.873 358.083 821.971 357.89 822.085 357.706" fill="#350080"/>
<path d="M821.789 358.284L821.301 388.593C821.231 388.766 821.173 388.944 821.128 389.125L821.616 358.816C821.656 358.633 821.714 358.455 821.789 358.284Z" fill="#350080"/>
<path d="M821.59 358.816L821.102 389.125C821.064 389.298 821.038 389.474 821.025 389.651L821.513 359.348C821.519 359.169 821.545 358.99 821.59 358.816" fill="#350080"/>
<path d="M821.513 359.374L821.025 389.676V389.805L821.507 359.495C821.503 359.455 821.503 359.414 821.507 359.374" fill="#350080"/>
<path d="M907.957 397.542L907.476 427.851C907.508 425.888 905.724 423.732 901.599 421.32C900.158 420.475 898.657 419.737 897.107 419.113L897.589 388.81C899.137 389.434 900.638 390.169 902.08 391.011C906.199 393.43 907.983 395.579 907.95 397.542" fill="#350080"/>
<path d="M897.614 388.81L897.133 419.113C896.062 418.683 894.952 418.298 893.765 417.952L894.252 387.649C895.393 387.975 896.515 388.363 897.614 388.81" fill="#350080"/>
<path d="M894.253 387.649L893.765 417.952C892.796 417.669 891.776 417.413 890.698 417.188L891.186 386.885C892.257 387.11 893.277 387.36 894.253 387.649" fill="#350080"/>
<path d="M891.185 386.885L890.697 417.188C889.626 416.963 888.497 416.771 887.297 416.598L887.784 386.289C888.978 386.462 890.107 386.661 891.185 386.885Z" fill="#350080"/>
<path d="M887.785 386.32L887.297 416.63C885.931 416.437 884.474 416.277 882.915 416.155L883.396 385.852C884.955 385.974 886.412 386.128 887.785 386.32Z" fill="#350080"/>
<path d="M883.383 385.82L882.902 416.123C880.823 415.962 878.564 415.859 876.088 415.815L876.576 385.505C879.052 385.55 881.311 385.653 883.383 385.82" fill="#350080"/>
<path d="M876.589 385.506L876.102 415.834C872.515 415.77 868.467 415.834 863.847 416.001C859.093 416.168 854.762 416.219 850.784 416.149L851.265 385.839C855.243 385.91 859.606 385.839 864.335 385.692C868.954 385.519 872.996 385.461 876.589 385.525" fill="#350080"/>
<path d="M851.265 385.821L850.783 416.13C847.543 416.072 844.541 415.931 841.73 415.713L842.218 385.404C845.022 385.628 848.031 385.763 851.265 385.821Z" fill="#350080"/>
<path d="M842.219 385.403L841.731 415.712C839.498 415.532 837.388 415.301 835.386 415.019L835.867 384.716C837.875 384.999 839.986 385.23 842.219 385.403" fill="#350080"/>
<path d="M835.866 384.716L835.385 415.019C833.563 414.762 831.831 414.461 830.169 414.114L830.657 383.805C832.318 384.152 834.051 384.447 835.866 384.716" fill="#350080"/>
<path d="M830.657 383.806L830.169 414.115C828.456 413.756 826.82 413.345 825.248 412.89L825.729 382.581C827.308 383.036 828.937 383.447 830.657 383.806" fill="#350080"/>
<path d="M825.729 382.58L825.248 412.889C823.323 412.318 821.437 411.67 819.634 410.964L820.121 380.662C821.918 381.387 823.779 382.028 825.729 382.586" fill="#350080"/>
<path d="M820.122 380.643L819.634 410.945C816.874 409.827 814.199 408.506 811.633 406.993C802.285 401.52 797.518 395.874 797.589 390.311L798.051 360.015C797.967 365.559 802.747 371.205 812.095 376.697C814.664 378.21 817.34 379.533 820.102 380.655" fill="#350080"/>
<path d="M868.094 410.009L867.612 440.312L860.946 436.405L861.427 406.102L868.094 410.009Z" fill="#454545"/>
<path d="M868.094 410.009L867.612 440.312L860.946 436.405L861.427 406.102L868.094 410.009Z" fill="url(#paint6_linear_1570_3102)"/>
<path d="M931.541 397.093L931.054 427.383C931.054 427.518 931.054 427.653 931.054 427.788L931.535 397.478C931.535 397.344 931.535 397.209 931.535 397.081" fill="#5F00E5"/>
<path d="M931.502 397.491L931.021 427.8C930.987 428.36 930.906 428.916 930.777 429.462L931.265 399.152C931.392 398.606 931.471 398.05 931.502 397.491Z" fill="#5F00E5"/>
<path d="M931.285 399.153L930.797 429.462C930.663 430.042 930.478 430.608 930.245 431.156L930.733 400.847C930.96 400.297 931.144 399.731 931.285 399.153" fill="#5F00E5"/>
<path d="M930.733 400.846L930.22 431.155C929.952 431.796 929.632 432.414 929.264 433.003L929.751 402.694C930.118 402.104 930.437 401.486 930.707 400.846" fill="#5F00E5"/>
<path d="M929.777 402.695L929.289 433.004C928.81 433.766 928.272 434.489 927.679 435.166L928.16 404.863C928.757 404.186 929.298 403.461 929.777 402.695Z" fill="#5F00E5"/>
<path d="M928.16 404.863L927.653 435.166C926.675 436.268 925.602 437.281 924.445 438.194L924.927 407.885C926.083 406.974 927.156 405.962 928.135 404.863" fill="#5F00E5"/>
<path d="M924.978 407.885L924.497 438.194C922.962 439.416 921.344 440.529 919.653 441.524C915.182 444.212 910.308 446.162 905.217 447.298L905.704 416.989C910.796 415.854 915.671 413.905 920.14 411.215C921.831 410.22 923.448 409.105 924.978 407.878" fill="#5F00E5"/>
<path d="M905.704 417.015L905.197 447.324C903.753 447.645 902.297 447.889 900.834 448.069L901.347 417.759C902.802 417.588 904.256 417.34 905.71 417.015" fill="#5F00E5"/>
<path d="M901.347 417.759L900.86 448.068C899.75 448.203 898.634 448.299 897.511 448.351L897.998 418.042C899.115 417.99 900.231 417.894 901.347 417.759Z" fill="#5F00E5"/>
<path d="M897.992 418.042L897.498 448.351C896.503 448.396 895.509 448.408 894.508 448.389L894.995 418.086C895.99 418.086 896.991 418.086 897.985 418.042" fill="#5F00E5"/>
<path d="M895.002 418.087L894.514 448.39C893.552 448.39 892.589 448.326 891.627 448.255L892.115 417.946C893.077 418.023 894.039 418.068 895.002 418.087" fill="#5F00E5"/>
<path d="M892.114 417.946L891.627 448.255C890.639 448.172 889.644 448.063 888.656 447.921L889.137 417.619C890.132 417.76 891.12 417.869 892.114 417.946Z" fill="#5F00E5"/>
<path d="M889.157 417.618L888.656 447.914C887.553 447.76 886.453 447.568 885.358 447.337L885.84 417.028C886.937 417.259 888.04 417.451 889.137 417.612" fill="#5F00E5"/>
<path d="M885.84 417.034L885.359 447.343C884.05 447.069 882.746 446.742 881.445 446.361L881.933 416.052C883.216 416.433 884.519 416.76 885.84 417.034Z" fill="#5F00E5"/>
<path d="M881.932 416.053L881.457 446.362C879.652 445.836 877.854 445.21 876.062 444.483L876.549 414.173C878.314 414.893 880.115 415.521 881.945 416.053" fill="#5F00E5"/>
<path d="M876.537 414.173L876.049 444.482C873.139 443.3 870.319 441.906 867.612 440.312L868.094 410.002C870.802 411.598 873.624 412.992 876.537 414.173" fill="#5F00E5"/>
<path d="M809.278 346.112C825.427 336.488 843.649 337.335 861.017 347.511L864.43 349.506L848.736 358.867L844.245 356.237C836.501 351.701 830.534 351.745 825.247 354.953C819.961 358.161 819.89 361.633 827.641 366.169C835.552 370.801 844.765 372.27 865.399 371.507C891.845 370.576 905.216 373.233 917.619 380.489C934.98 390.659 936.45 401.514 920.153 411.241C903.856 420.968 885.507 420.191 868.106 410.022L861.44 406.121L877.134 396.754L884.891 401.296C892.641 405.839 898.756 405.492 904.036 402.342C909.316 399.192 909.849 395.573 902.111 391.031C894.2 386.398 884.993 384.929 864.359 385.693C837.913 386.623 824.542 383.967 812.14 376.71C794.746 366.515 793.129 355.749 809.278 346.112Z" fill="#DCD4FF"/>
<path d="M845.336 425.048L844.855 455.357L761.133 406.326L761.614 376.017L845.336 425.048Z" fill="#350080"/>
<path d="M851.207 431.58L850.726 461.883C850.726 459.958 848.975 457.77 844.855 455.358L845.337 425.048C849.456 427.467 851.239 429.617 851.207 431.58Z" fill="#350080"/>
<path d="M810.44 444.584L809.958 474.887L727.32 426.491L727.808 396.182L810.44 444.584Z" fill="url(#paint7_linear_1570_3102)"/>
<path d="M873.881 431.669L873.399 461.972C873.399 462.107 873.399 462.242 873.399 462.376L873.881 432.067C873.881 431.932 873.881 431.804 873.881 431.669Z" fill="#5F00E5"/>
<path d="M873.869 432.068L873.387 462.377C873.353 462.937 873.272 463.493 873.144 464.039L873.625 433.73C873.757 433.184 873.838 432.628 873.869 432.068" fill="#5F00E5"/>
<path d="M873.624 433.729L873.117 464.038C872.98 464.617 872.795 465.183 872.565 465.732L873.053 435.423C873.281 434.874 873.463 434.308 873.598 433.729" fill="#5F00E5"/>
<path d="M873.079 435.423L872.592 465.733C872.325 466.372 872.006 466.988 871.636 467.574L872.123 437.271C872.49 436.681 872.809 436.063 873.079 435.423" fill="#5F00E5"/>
<path d="M872.122 437.271L871.635 467.574C871.158 468.339 870.619 469.064 870.024 469.742L870.506 439.44C871.101 438.761 871.642 438.035 872.122 437.271Z" fill="#5F00E5"/>
<path d="M870.507 439.439L870.025 469.729C869.047 470.831 867.974 471.844 866.817 472.757L867.343 442.461C868.5 441.55 869.573 440.539 870.552 439.439" fill="#5F00E5"/>
<path d="M867.343 442.461L866.862 472.771C865.327 473.995 863.709 475.11 862.018 476.107C857.546 478.797 852.669 480.747 847.575 481.881L848.063 451.579C853.154 450.442 858.028 448.492 862.499 445.804C864.192 444.811 865.811 443.696 867.343 442.468" fill="#5F00E5"/>
<path d="M848.043 451.598L847.556 481.92C846.117 482.241 844.663 482.489 843.199 482.664L843.68 452.362C845.143 452.182 846.593 451.932 848.043 451.617" fill="#5F00E5"/>
<path d="M843.681 452.341L843.2 482.644C842.083 482.779 840.967 482.875 839.851 482.926L840.332 452.617C841.455 452.566 842.571 452.476 843.681 452.341Z" fill="#5F00E5"/>
<path d="M840.331 452.618L839.85 482.927C838.856 482.972 837.855 482.985 836.86 482.972L837.342 452.663C838.342 452.663 839.337 452.663 840.331 452.618Z" fill="#5F00E5"/>
<path d="M837.342 452.663L836.861 482.972C835.898 482.972 834.936 482.908 833.974 482.831L834.455 452.522C835.417 452.599 836.38 452.644 837.342 452.663Z" fill="#5F00E5"/>
<path d="M834.455 452.521L833.98 482.83C832.985 482.753 831.997 482.638 831.003 482.503L831.491 452.194C832.479 452.335 833.473 452.444 834.461 452.521" fill="#5F00E5"/>
<path d="M831.484 452.195L830.996 482.504C829.897 482.346 828.798 482.151 827.698 481.92L828.186 451.611C829.283 451.842 830.387 452.041 831.484 452.195Z" fill="#5F00E5"/>
<path d="M828.205 451.61L827.698 481.919C826.415 481.645 825.113 481.318 823.791 480.938L824.272 450.628C825.555 451.013 826.884 451.341 828.186 451.61" fill="#5F00E5"/>
<path d="M824.273 450.629L823.791 480.938C821.962 480.404 820.161 479.777 818.396 479.058L818.877 448.755C820.673 449.48 822.476 450.103 824.273 450.629Z" fill="#5F00E5"/>
<path d="M818.876 448.755L818.395 479.058C815.485 477.876 812.665 476.482 809.958 474.887L810.439 444.584C813.149 446.174 815.968 447.568 818.876 448.755" fill="#5F00E5"/>
<path d="M777.313 366.65L859.945 415.046C877.313 425.222 878.783 436.071 862.479 445.798C846.176 455.524 827.833 454.78 810.439 444.585L727.808 396.183L744.406 386.283L828.128 435.314C835.879 439.856 841.993 439.51 847.274 436.36C852.554 433.209 853.086 429.591 845.349 425.048L761.614 376.017L777.313 366.65Z" fill="#DCD4FF"/>
<path d="M726.653 426.383L726.191 456.686C724.944 455.95 723.644 455.306 722.303 454.761L722.79 424.452C724.132 424.997 725.431 425.641 726.678 426.376" fill="#350080"/>
<path d="M722.764 424.445L722.277 454.754C721.533 454.452 720.795 454.196 720.076 453.984L720.564 423.681C721.31 423.897 722.045 424.152 722.764 424.445" fill="#350080"/>
<path d="M720.564 423.681L720.077 453.984C719.57 453.837 719.069 453.708 718.575 453.606L719.056 423.296C719.55 423.405 720.051 423.527 720.564 423.681" fill="#350080"/>
<path d="M719.057 423.297L718.576 453.606C718.171 453.522 717.78 453.452 717.389 453.4L717.87 423.091C718.261 423.149 718.659 423.213 719.057 423.297Z" fill="#350080"/>
<path d="M717.85 423.092L717.369 453.401C717.01 453.349 716.657 453.311 716.311 453.279L716.798 422.976C717.145 422.976 717.498 423.04 717.85 423.092Z" fill="#350080"/>
<path d="M716.818 422.976L716.33 453.278C715.996 453.278 715.688 453.24 715.329 453.234L715.817 422.924C716.144 422.924 716.458 422.924 716.818 422.976Z" fill="#350080"/>
<path d="M715.817 422.924L715.329 453.234C714.989 453.234 714.649 453.234 714.315 453.234L714.797 422.924C715.137 422.924 715.47 422.924 715.817 422.924Z" fill="#350080"/>
<path d="M714.796 422.937L714.315 453.246C713.937 453.246 713.565 453.298 713.192 453.342L713.68 423.033C714.048 422.986 714.42 422.954 714.796 422.937Z" fill="#350080"/>
<path d="M713.68 423.033L713.192 453.342C712.704 453.4 712.23 453.483 711.755 453.586L712.243 423.277C712.711 423.174 713.192 423.09 713.68 423.033Z" fill="#350080"/>
<path d="M712.243 423.277L711.755 453.586C710.032 453.975 708.384 454.641 706.873 455.556C706.288 455.899 705.729 456.282 705.198 456.704L705.686 426.395C706.214 425.974 706.772 425.59 707.354 425.247C708.867 424.331 710.518 423.666 712.243 423.277Z" fill="#350080"/>
<path d="M705.66 426.395L705.172 456.704C704.789 457.011 704.433 457.35 704.107 457.718L704.589 427.409C704.918 427.042 705.276 426.703 705.66 426.395Z" fill="#350080"/>
<path d="M704.614 427.383L704.133 457.692C703.935 457.92 703.755 458.163 703.594 458.417L704.075 428.108C704.236 427.854 704.416 427.611 704.614 427.383Z" fill="#350080"/>
<path d="M704.075 428.134L703.594 458.443C703.47 458.636 703.365 458.84 703.279 459.053L703.76 428.744C703.849 428.532 703.954 428.329 704.075 428.134" fill="#350080"/>
<path d="M703.735 428.744L703.253 459.053C703.176 459.236 703.114 459.424 703.067 459.617L703.555 429.308C703.596 429.115 703.656 428.926 703.735 428.744" fill="#350080"/>
<path d="M703.581 429.308L703.093 459.617C703.049 459.798 703.021 459.983 703.01 460.169L703.497 429.866C703.509 429.678 703.537 429.491 703.581 429.308" fill="#350080"/>
<path d="M703.497 429.867L703.01 460.169V460.311L703.491 430.001C703.488 429.957 703.488 429.912 703.491 429.867" fill="#350080"/>
<path d="M693.925 447.19L693.469 477.499C684.301 472.129 679.688 466.489 679.778 460.94L680.259 430.63C680.175 436.187 684.782 441.82 693.951 447.19" fill="#350080"/>
<path d="M785.256 460.702L784.775 491.012L726.165 456.686L726.653 426.383L785.256 460.702Z" fill="#350080"/>
<path d="M791.217 467.349L790.729 497.658C790.762 495.656 788.946 493.455 784.775 491.011L785.257 460.702C789.427 463.146 791.249 465.347 791.217 467.349" fill="#350080"/>
<path d="M750.36 480.239L749.879 510.548L693.443 477.499L693.925 447.19L750.36 480.239Z" fill="url(#paint8_linear_1570_3102)"/>
<path d="M814.468 466.726L813.98 497.035C813.98 497.17 813.98 497.305 813.98 497.439L814.462 467.137C814.462 467.002 814.462 466.861 814.462 466.726" fill="#5F00E5"/>
<path d="M814.449 467.163L813.968 497.465C813.935 498.045 813.852 498.62 813.718 499.185L814.205 468.876C814.334 468.312 814.415 467.739 814.449 467.163" fill="#5F00E5"/>
<path d="M814.206 468.85L813.718 499.159C813.579 499.756 813.391 500.34 813.153 500.904L813.635 470.595C813.872 470.03 814.063 469.446 814.206 468.85Z" fill="#5F00E5"/>
<path d="M813.634 470.595L813.153 500.904C812.877 501.572 812.547 502.216 812.165 502.829L812.653 472.526C813.031 471.912 813.359 471.268 813.634 470.602" fill="#5F00E5"/>
<path d="M812.652 472.5L812.165 502.803C811.671 503.593 811.115 504.341 810.503 505.042L810.984 474.733C811.599 474.034 812.156 473.288 812.652 472.5" fill="#5F00E5"/>
<path d="M810.985 474.733L810.503 505.017C809.512 506.137 808.426 507.169 807.257 508.103L807.738 477.8C808.909 476.866 809.995 475.831 810.985 474.708" fill="#5F00E5"/>
<path d="M807.739 477.826L807.258 508.128C805.711 509.362 804.079 510.486 802.375 511.49C797.816 514.235 792.844 516.226 787.65 517.387L788.138 487.078C793.332 485.92 798.305 483.929 802.863 481.181C804.565 480.179 806.194 479.057 807.739 477.826" fill="#5F00E5"/>
<path d="M788.137 487.052L787.649 517.361C786.167 517.689 784.672 517.939 783.158 518.125L783.646 487.816C785.147 487.636 786.636 487.379 788.137 487.052Z" fill="#5F00E5"/>
<path d="M783.659 487.841L783.172 518.15C782.023 518.285 780.868 518.388 779.707 518.439L780.195 488.13C781.35 488.079 782.504 487.982 783.659 487.841Z" fill="#5F00E5"/>
<path d="M780.195 488.13L779.707 518.44C778.687 518.484 777.66 518.504 776.634 518.484L777.115 488.175C778.142 488.175 779.168 488.175 780.195 488.13Z" fill="#5F00E5"/>
<path d="M777.114 488.175L776.633 518.491C775.645 518.491 774.663 518.427 773.675 518.343L774.156 488.041C775.144 488.118 776.132 488.162 777.114 488.182" fill="#5F00E5"/>
<path d="M774.156 488.034L773.669 518.337C772.655 518.26 771.635 518.144 770.621 518.003L771.102 487.694C772.122 487.841 773.136 487.95 774.15 488.034" fill="#5F00E5"/>
<path d="M771.103 487.693L770.621 518.002C769.505 517.842 768.395 517.65 767.285 517.412L767.766 487.103C768.876 487.34 769.993 487.533 771.103 487.693Z" fill="#5F00E5"/>
<path d="M767.773 487.104L767.292 517.413C766.008 517.137 764.687 516.816 763.391 516.438L763.872 486.128C765.155 486.507 766.438 486.834 767.773 487.104Z" fill="#5F00E5"/>
<path d="M763.872 486.128L763.404 516.437C761.614 515.918 759.837 515.295 758.06 514.583L758.547 484.274C760.318 484.986 762.102 485.608 763.885 486.128" fill="#5F00E5"/>
<path d="M758.534 484.274L758.046 514.584C755.23 513.439 752.5 512.09 749.879 510.548L750.36 480.239C752.982 481.782 755.714 483.131 758.534 484.274" fill="#5F00E5"/>
<path d="M691.845 416.169C708.148 406.442 726.973 406.942 744.341 417.112L800.802 450.167C818.164 460.336 819.184 471.462 802.887 481.182C786.59 490.902 767.747 490.408 750.385 480.239L693.924 447.19C676.556 437.008 675.542 425.895 691.845 416.169ZM785.256 460.702L726.652 426.383C718.902 421.84 712.633 422.097 707.353 425.247C702.072 428.398 701.694 432.106 709.444 436.649L768.048 470.968C775.805 475.51 782.067 475.254 787.354 472.103C792.641 468.953 793.013 465.245 785.256 460.702" fill="#DCD4FF"/>
<path d="M687.227 475.381L686.746 505.691L640.229 478.448L640.711 448.139L687.227 475.381Z" fill="#350080"/>
<path d="M702.728 484.46L702.246 514.77L683.377 526.023L683.865 495.714L702.728 484.46Z" fill="#5F00E5"/>
<path d="M749.243 511.703L748.756 542.012L702.246 514.77L702.727 484.46L749.243 511.703Z" fill="#350080"/>
<path d="M766.15 501.617L765.668 531.926L748.756 542.012L749.243 511.703L766.15 501.617Z" fill="#5F00E5"/>
<path d="M713.77 532.863L713.288 563.172L604.762 499.609L605.243 469.299L713.77 532.863Z" fill="#350080"/>
<path d="M730.374 522.957L729.893 553.266L713.288 563.172L713.769 532.863L730.374 522.957Z" fill="#5F00E5"/>
<path d="M657.623 438.053L766.15 501.617L749.244 511.703L702.728 484.46L683.865 495.714L730.374 522.956L713.77 532.862L605.243 469.299L621.848 459.393L668.364 486.635L687.227 475.382L640.711 448.139L657.623 438.053Z" fill="#DCD4FF"/>
</g>
<path d="M503.796 348.159C503.666 348.157 503.601 348.14 503.601 348.108L503.504 348.106L492.547 341.529C492.353 341.396 492.241 341.216 492.211 340.987L492.805 279.564C492.84 279.337 492.956 279.159 493.153 279.031C518.555 264.753 531.321 257.614 531.451 257.616C531.548 257.617 533.456 258.731 537.173 260.957L542.748 264.296L542.797 264.296L542.796 264.345L542.845 264.346L542.845 264.394L542.893 264.395L542.941 264.493L542.94 264.542C542.971 264.673 542.987 264.738 542.987 264.738C543.019 264.738 543.036 264.755 543.035 264.787L542.442 326.21C542.439 326.471 542.323 326.665 542.093 326.792C516.724 341.039 503.959 348.161 503.796 348.159ZM503.183 346.345L503.708 286.532L494.109 280.752L493.583 340.613L503.183 346.345ZM504.406 285.369L541.033 264.812L531.433 259.081L494.806 279.637L504.406 285.369ZM511.035 322.853L523.916 315.586L524.212 282.921L511.33 290.189L511.035 322.853ZM510.881 335.597L534.185 322.497L524.586 316.766L511.016 324.416L510.881 335.597ZM534.882 321.383L535.273 276.755L525.588 282.205L525.283 315.603L534.882 321.383Z" fill="white"/>
<path d="M573.075 309.468L572.88 309.466C572.88 309.433 572.864 309.417 572.832 309.417L572.735 309.367L561.767 302.855C561.573 302.723 561.477 302.526 561.48 302.266L561.928 240.842C561.963 240.614 562.079 240.453 562.275 240.357C566.598 237.896 568.808 236.665 568.906 236.666C569.036 236.668 570.961 237.778 574.682 239.999L580.262 243.329L580.262 243.378L580.36 243.379L580.359 243.476L580.456 243.526L580.502 243.819L580.435 254.855L595.887 220.102L595.936 220.103L596.035 219.957L596.281 219.813L596.282 219.765L596.623 219.768L602.081 220.9L612.999 227.411L613.096 227.461L613.096 227.51L613.241 227.609L613.289 227.707L613.336 227.903L613.335 227.952C613.334 228.049 613.317 228.13 613.284 228.195L596.831 265.183L612.752 283.71C612.848 283.809 612.896 283.94 612.894 284.102C612.892 284.298 611.092 286.769 607.494 291.517L607.445 291.516C607.444 291.581 607.411 291.614 607.346 291.613L607.248 291.71L607.101 291.708L607.101 291.757L606.613 291.703C606.613 291.67 604.769 290.561 601.081 288.373C597.425 286.187 595.565 285.06 595.501 284.994L586.817 274.893L580.236 278.535L580.054 305.244C580.051 305.504 579.935 305.698 579.706 305.826C575.416 308.255 573.206 309.469 573.075 309.468ZM609.004 226.588L601.482 222.065L600.167 221.807L607.689 226.281L609.004 226.588ZM590.303 263.796L606.605 227.197L596.802 221.382L580.5 257.98L590.303 263.796ZM580.327 269.796L589.267 264.762L580.387 259.444L580.327 269.796ZM572.411 307.654L572.891 247.793L563.234 242.076L562.802 301.938L572.411 307.654ZM573.538 246.676L578.548 243.848L568.891 238.131L563.929 240.911L573.538 246.676ZM603.815 288.451L590.403 272.831L587.996 274.222L596.438 284.076L603.815 288.451Z" fill="white"/>
<path d="M651.603 265.206L651.456 265.205L651.31 265.154L651.311 265.106L651.262 265.105L640.343 258.594C640.117 258.461 640.005 258.265 640.008 258.004L640.097 244.821L636.363 246.979L636.167 247.026C635.972 247.024 635.826 247.006 635.728 246.973L635.68 246.972L635.68 246.923L624.761 240.412C624.535 240.28 624.423 240.099 624.425 239.871L624.688 205.497C624.723 205.27 624.838 205.092 625.035 204.964C629.325 202.535 631.535 201.321 631.665 201.322C631.796 201.323 633.721 202.434 637.441 204.654L643.021 208.033L643.119 208.083L643.118 208.132L643.167 208.132L643.215 208.231L643.261 208.426L643.171 221.707L656.09 214.42L656.273 187.663L656.321 187.664L656.322 187.566C656.323 187.501 656.34 187.452 656.373 187.42C656.406 187.355 656.439 187.307 656.472 187.274C656.537 187.243 657.667 186.62 659.861 185.406C662.055 184.159 663.201 183.536 663.299 183.537C663.396 183.538 665.305 184.649 669.026 186.869C672.747 189.056 674.607 190.166 674.606 190.199L674.704 190.249L674.703 190.298L674.752 190.298L674.8 190.396L674.846 190.592L674.894 190.69L674.632 225.016C674.63 225.276 674.514 225.47 674.285 225.598L658.812 234.274L658.63 260.983C658.595 261.243 658.479 261.437 658.282 261.565C653.959 263.994 651.733 265.208 651.603 265.206ZM667.882 193.498L672.892 190.669L663.284 184.953L658.273 187.782L667.882 193.498ZM667.016 220.199L667.235 194.663L657.627 188.898L657.408 214.434L667.016 220.199ZM643.087 234.451L666.37 221.316L656.761 215.599L643.155 223.27L643.087 234.451ZM635.356 245.211L635.602 212.448L625.993 206.732L625.748 239.495L635.356 245.211ZM636.297 211.332L641.307 208.504L631.65 202.787L626.689 205.567L636.297 211.332ZM650.987 263.393L651.149 238.589L641.472 244.103L641.33 257.676L650.987 263.393Z" fill="white"/>
<path d="M700.786 239.123C700.656 239.122 700.591 239.105 700.591 239.072L700.494 239.071L689.526 232.511C689.333 232.378 689.22 232.198 689.19 231.97L689.687 170.546C689.722 170.319 689.838 170.141 690.034 170.013C715.414 155.694 728.168 148.536 728.299 148.537C728.396 148.538 730.305 149.649 734.026 151.869L739.606 155.199L739.655 155.199L739.655 155.248L739.704 155.249L739.703 155.298L739.752 155.298L739.8 155.396L739.799 155.445C739.83 155.576 739.846 155.641 739.846 155.641C739.878 155.641 739.895 155.658 739.894 155.69L739.397 217.114C739.395 217.375 739.279 217.569 739.05 217.696C713.703 231.983 700.949 239.125 700.786 239.123ZM700.17 237.31L700.601 177.497L690.993 171.732L690.562 231.594L700.17 237.31ZM701.297 176.332L737.892 155.718L728.283 150.002L691.688 170.616L701.297 176.332ZM707.985 213.807L720.855 206.519L721.099 173.854L708.23 181.141L707.985 213.807ZM707.852 226.55L731.135 213.414L721.526 207.698L707.969 215.369L707.852 226.55ZM731.83 212.298L732.151 167.67L722.474 173.136L722.222 206.533L731.83 212.298Z" fill="white"/>
<path d="M450.676 378.267C450.513 378.265 450.416 378.248 450.383 378.215C450.351 378.182 446.683 375.989 439.378 371.637C439.184 371.504 439.072 371.324 439.042 371.095L439.43 330.814C436.841 332.248 435.53 332.964 435.497 332.964C435.465 332.964 435.416 332.963 435.351 332.962L435.01 332.909L424.052 326.38C423.859 326.248 423.763 326.051 423.767 325.791L423.805 318.516C423.841 318.288 423.957 318.127 424.153 318.031C449.555 303.753 462.321 296.614 462.451 296.616C462.581 296.618 464.488 297.731 468.173 299.957C471.89 302.15 473.749 303.263 473.748 303.295C473.78 303.328 473.829 303.378 473.893 303.444C473.957 303.51 474.005 303.592 474.036 303.69L473.948 311.013C473.945 311.274 473.845 311.468 473.648 311.596L458.161 320.297L457.661 374.054C457.657 374.315 457.541 374.508 457.312 374.636C452.985 377.058 450.773 378.268 450.676 378.267ZM434.689 331.196L434.757 325.484L425.109 319.752L425.09 325.416L434.689 331.196ZM435.406 324.369L472.033 303.812L462.434 298.032L425.807 318.588L435.406 324.369ZM450.014 376.453L450.492 324.599L440.758 330.049L440.414 370.721L450.014 376.453Z" fill="white"/>
<defs>
<radialGradient id="paint0_radial_1570_3102" cx="0" cy="0" r="1" gradientUnits="userSpaceOnUse" gradientTransform="translate(720 396.361) rotate(90) scale(396.361 720)">
<stop stop-color="#D9D9D9"/>
<stop offset="1" stop-color="#D9D9D9" stop-opacity="0"/>
</radialGradient>
<linearGradient id="paint1_linear_1570_3102" x1="857.052" y1="299.995" x2="852.008" y2="299.55" gradientUnits="userSpaceOnUse">
<stop stop-color="#5F00E5"/>
<stop offset="1" stop-color="#350080"/>
</linearGradient>
<linearGradient id="paint2_linear_1570_3102" x1="853.578" y1="298.042" x2="841.643" y2="295.78" gradientUnits="userSpaceOnUse">
<stop stop-color="#5F00E5"/>
<stop offset="1" stop-color="#350080"/>
</linearGradient>
<linearGradient id="paint3_linear_1570_3102" x1="642.847" y1="351.335" x2="630.018" y2="348.804" gradientUnits="userSpaceOnUse">
<stop stop-color="#5F00E5"/>
<stop offset="1" stop-color="#350080"/>
</linearGradient>
<linearGradient id="paint4_linear_1570_3102" x1="651.887" y1="386.754" x2="603.435" y2="360.581" gradientUnits="userSpaceOnUse">
<stop stop-color="#5F00E5"/>
<stop offset="1" stop-color="#350080"/>
</linearGradient>
<linearGradient id="paint5_linear_1570_3102" x1="848.698" y1="382.182" x2="842.245" y2="381.582" gradientUnits="userSpaceOnUse">
<stop stop-color="#5F00E5"/>
<stop offset="1" stop-color="#350080"/>
</linearGradient>
<linearGradient id="paint6_linear_1570_3102" x1="868.049" y1="433.048" x2="858.857" y2="431.867" gradientUnits="userSpaceOnUse">
<stop stop-color="#5F00E5"/>
<stop offset="1" stop-color="#350080"/>
</linearGradient>
<linearGradient id="paint7_linear_1570_3102" x1="809.916" y1="458.175" x2="733.504" y2="408.532" gradientUnits="userSpaceOnUse">
<stop stop-color="#5F00E5"/>
<stop offset="1" stop-color="#350080"/>
</linearGradient>
<linearGradient id="paint8_linear_1570_3102" x1="750.001" y1="497.094" x2="693.001" y2="465.594" gradientUnits="userSpaceOnUse">
<stop stop-color="#5F00E5"/>
<stop offset="1" stop-color="#350080"/>
</linearGradient>
<clipPath id="clip0_1570_3102">
<rect width="522.66" height="339.817" fill="white" transform="translate(475.325 223.355)"/>
</clipPath>
</defs>
</svg>
